<svg width="3242" height="816" viewBox="0 0 3242 816" fill="none" xmlns="http://www.w3.org/2000/svg">
<g clip-path="url(#clip0_17569_41911)">
<path d="M3241.85 471.903C3026.55 471.903 3142.82 495.33 2809.62 478.957C2700.03 474.242 2648.47 492.31 2485.47 409.847C2383.02 356.534 2322.01 313.35 2228.83 278.538C1998.49 199.813 1991.12 332.235 1539.96 425.712C1419.29 450.234 1343.8 461.65 1242.8 495.992C1123.65 538.582 1046.59 583.814 905.125 564.762C769.865 542.474 677.856 480.046 540.432 450.983C379.489 421.251 235.363 471.903 0.148438 471.903" stroke="#528491" stroke-opacity="0.25" stroke-width="2" stroke-linecap="round" stroke-linejoin="round"/>
<path d="M3241.85 471.903C3069.29 472.293 3090.37 494.42 2890.68 488.053C2685.82 480.362 2652.31 494 2512.48 427.018C2414.73 378.339 2350.03 331.585 2255.84 290.852C2014.21 192.957 2008.17 319.352 1539.97 427.767C1416.73 455.698 1341.02 469.967 1242.81 503.473C1121.33 546.756 1045.27 589.451 905.131 569.235C769.55 545.642 678.035 482.825 540.438 453.223C380.521 423.113 238.88 471.854 0.154297 471.909" stroke="#528491" stroke-opacity="0.25" stroke-width="2" stroke-linecap="round" stroke-linejoin="round"/>
<path d="M3241.85 471.903C3071.27 472.38 3091.85 496.499 2890.68 492.861C2686.47 487.892 2653.19 496.821 2525.97 437.388C2426.97 388.889 2365.19 342.859 2269.36 298.58C2026.82 192.882 2023.35 306.872 1526.46 433.23C1388.46 467.473 1314.14 484.637 1215.8 520.699C1083.97 570.157 1006.41 598.961 864.614 565.151C729.144 529.449 638.13 467.528 499.921 448.823C355.987 433.552 216.615 471.916 0.154297 471.903" stroke="#528491" stroke-opacity="0.25" stroke-width="2" stroke-linecap="round" stroke-linejoin="round"/>
<path d="M3241.85 471.903C3077.28 472.336 3101.94 495.15 2917.69 497.662C2856.63 497.929 2830.61 496.004 2769.12 495.008C2683.01 494.241 2639.71 493.263 2539.49 447.753C2441.91 401.122 2380.13 354.275 2282.85 306.742C2102.12 222.558 2027.3 265.117 1877.64 321.27C1624.22 415.02 1556.25 425.613 1364.37 480.318C1102.91 555.95 1037.58 632.622 797.071 548.049C656.704 496.66 580.004 449.108 432.378 446.924C280.894 447.276 208.534 471.928 0.148438 471.903" stroke="#528491" stroke-opacity="0.25" stroke-width="2" stroke-linecap="round" stroke-linejoin="round"/>
<path d="M3241.85 471.903C3041.5 472.64 3166.81 504.314 2755.6 500.694C2538.58 499.37 2444.42 379.781 2255.84 296.359C2053.55 212.621 2012.37 285.481 1593.99 417.303C1274.59 516.219 1485.02 444.226 1148.26 559.614C837.816 661.494 725.731 465.462 459.397 449.51C318.283 444.108 214.94 471.934 0.154297 471.903" stroke="#528491" stroke-opacity="0.25" stroke-width="2" stroke-linecap="round" stroke-linejoin="round"/>
<path d="M3241.85 471.903C3047.12 472.788 3139.22 511.987 2728.59 506.195C2538.21 499.135 2419.81 366.533 2242.32 292.541C2077.26 228.697 2001.08 275.086 1783.09 352.636C1496.91 453.606 1462.37 459.274 1269.82 524.115C1158.49 562.181 1111.65 584.42 1026.69 593.782C844.266 607.915 729.855 510.18 553.942 465.264C392.893 428.299 276.306 471.959 0.148438 471.909" stroke="#528491" stroke-opacity="0.25" stroke-width="2" stroke-linecap="round" stroke-linejoin="round"/>
<path d="M3241.85 471.903C3054.69 472.974 3107.07 518.701 2728.59 511.579C2544.82 503.788 2427.94 376.836 2255.83 299.236C2123.73 243.547 2050.41 258.8 1931.65 298.413C898.2 647.435 1101.21 669.457 634.983 492.681C421.174 414.859 332.077 472.089 0.148438 471.909" stroke="#528491" stroke-opacity="0.25" stroke-width="2" stroke-linecap="round" stroke-linejoin="round"/>
<path d="M3241.85 471.903C3102.19 472.887 3094.79 501.92 2917.69 514.982C2695.37 528.638 2638.75 508.429 2566.5 476.352C2357.64 377.498 2229.51 213.401 1985.7 280.197C1759.78 346.912 1458.3 479.706 1161.76 577.094C907.561 657.329 811.675 552.875 594.465 480.745C412.104 424.11 329.968 472.219 0.154297 471.909" stroke="#528491" stroke-opacity="0.25" stroke-width="2" stroke-linecap="round" stroke-linejoin="round"/>
<path d="M3241.85 471.903C3104.44 473.036 3084.69 506.635 2904.17 520.241C2588.55 540.085 2590.69 491.005 2323.38 336.01C2117.04 220.492 2031.05 244.413 1621.01 409.327C1118.96 614.344 1040.29 641.996 864.608 589.717C727.827 545.803 638.359 481.872 499.915 460.332C363.135 443.013 257.337 472.244 0.148438 471.903" stroke="#528491" stroke-opacity="0.25" stroke-width="2" stroke-linecap="round" stroke-linejoin="round"/>
<path d="M3241.85 471.903C3107.24 473.19 3082.68 508.776 2904.17 524.666C2591.16 548.439 2583.97 490.485 2323.38 337.476C2138.45 232.644 2042.14 235.138 1675.03 386.668C1362.72 517.259 1134.55 639.348 945.648 613.347C724.414 575.918 658.027 448.13 364.841 457.251C218.57 463.005 196.682 472.244 0.148438 471.909" stroke="#528491" stroke-opacity="0.25" stroke-width="2" stroke-linecap="round" stroke-linejoin="round"/>
<path d="M3241.85 471.903C3109.48 473.345 3081.72 510.824 2904.17 529.071C2593.85 556.65 2574.75 488.393 2323.38 338.874C2146.44 237.353 2038.12 229.643 1675.03 385.647C1432.34 491.165 1180.04 633.129 986.172 623.118C769.754 604.728 665.632 459.392 405.364 457.826C264.076 458.798 233.421 472.386 0.148438 471.897" stroke="#528491" stroke-opacity="0.25" stroke-width="2" stroke-linecap="round" stroke-linejoin="round"/>
<path d="M3241.85 471.903C3095.72 473.747 3038.75 535.704 2796.13 538.916C2578.07 540.036 2532.25 465.53 2323.38 339.208C2161.57 244.822 2073.51 246.263 1891.15 300.777C1597.02 391.692 1417.1 542.232 1134.75 615.08C841.032 684.555 721.31 476.111 445.888 459.781C319.847 454.769 249.503 472.602 0.154297 471.897" stroke="#528491" stroke-opacity="0.25" stroke-width="2" stroke-linecap="round" stroke-linejoin="round"/>
<path d="M3241.85 471.903C3108.67 473.84 3085.46 514.115 2904.17 537.165C2588.04 572.459 2565.85 483.319 2309.86 331.523C2197.02 267.128 2115.88 247.074 1985.71 273.044C1590.04 359.028 1321.27 641.217 1013.19 636.291C794.134 625.426 674.752 470.27 432.378 460.307C311.284 457.412 247.135 472.683 0.148438 471.909" stroke="#528491" stroke-opacity="0.25" stroke-width="2" stroke-linecap="round" stroke-linejoin="round"/>
<path d="M3241.85 471.903C3115.24 473.97 3077.74 517.055 2904.17 541.205C2591.55 579.693 2562.29 483.808 2309.86 331.721C2197.4 266.497 2116.8 246.276 1985.71 270.538C1589.85 350.755 1350.49 642.2 1026.69 642.819C811.001 635.982 682.895 481.804 459.392 462.776C336.43 455.091 279.651 472.739 0.148438 471.903" stroke="#528491" stroke-opacity="0.25" stroke-width="2" stroke-linecap="round" stroke-linejoin="round"/>
<path d="M3241.85 471.903C3109.09 474.323 3074.87 522.308 2890.68 547.065C2578.62 583.628 2549.03 472.813 2296.37 323.975C2172.36 254.314 2093.04 247.866 1972.19 270.581C1586.23 349.22 1372.25 642.795 1040.2 649.323C817.852 646.322 688.485 483.808 459.392 463.872C340.214 456.249 288.901 472.893 0.148438 471.91" stroke="#528491" stroke-opacity="0.25" stroke-width="2" stroke-linecap="round" stroke-linejoin="round"/>
<path d="M3241.85 471.903C3114.82 474.459 3069.31 525.192 2890.68 551.223C2713.14 573.87 2643.14 546.323 2566.5 504.939C2353.78 383.259 2253.55 223.474 1985.7 265.377C1730.69 309.613 1575.06 446.367 1377.88 556.056C1043.25 736.946 899.659 635.883 689.016 534.436C460.869 426.739 437.064 473.184 0.154297 471.903" stroke="#528491" stroke-opacity="0.25" stroke-width="2" stroke-linecap="round" stroke-linejoin="round"/>
<path d="M3241.85 471.903C3117.54 474.731 3066.36 527.586 2890.68 554.861C2713.75 578.962 2642.7 549.645 2566.5 507.47C2352.71 382.225 2255.76 222.039 1985.7 260.718C1730.54 301.686 1576.61 448.136 1377.88 563.79C1049.57 749.025 892.412 635.363 689.016 535.673C463.528 427.482 436.965 473.376 0.154297 471.903" stroke="#528491" stroke-opacity="0.25" stroke-width="2" stroke-linecap="round" stroke-linejoin="round"/>
<path d="M3241.85 471.903C3118.67 475.034 3064.93 529.783 2890.68 558.506C2716.69 583.715 2644.03 553.964 2566.5 510.007C2353.6 382.312 2257.49 220.727 1985.7 256.058C1730.72 293.71 1577.47 450.222 1377.88 571.531C1048.94 764.84 879.91 630.036 675.506 530.333C465.166 430.526 438.746 473.611 0.154297 471.903" stroke="#528491" stroke-opacity="0.25" stroke-width="2" stroke-linecap="round" stroke-linejoin="round"/>
<path d="M3241.85 471.903C3119.38 475.337 3064.16 531.918 2890.68 562.144C2716.73 588.9 2643.23 557.077 2566.5 512.538C2348.81 378.933 2259.39 219.434 1985.7 251.399C1591.56 304.57 1427.64 683.113 1053.71 676.363C917.794 669.321 828.505 608.88 689.016 538.161C470.447 429.852 448.151 473.846 0.154297 471.903" stroke="#528491" stroke-opacity="0.25" stroke-width="2" stroke-linecap="round" stroke-linejoin="round"/>
<path d="M3241.85 471.903C3113.32 475.851 3058.08 538.588 2877.16 567.979C2714.14 591.041 2641.85 562.38 2553 506.598C2337.31 365.036 2250.93 214.422 1972.18 248.386C1587.21 302.961 1420.34 709.096 1040.19 682.266C904.512 668.053 815.304 602.971 675.5 532.604C470.447 432.358 448.212 474.075 0.154297 471.903" stroke="#528491" stroke-opacity="0.25" stroke-width="2" stroke-linecap="round" stroke-linejoin="round"/>
<path d="M3241.85 471.903C3114.05 476.185 3057.46 540.821 2877.16 571.673C2717.47 595.508 2644.44 567.552 2553 508.862C2336.58 363.681 2252.52 212.695 1972.18 243.361C1720.66 276.1 1560.85 474.267 1364.36 603.664C1062.87 793.669 869.467 632.789 675.5 533.65C472.332 432.871 448.577 474.304 0.154297 471.903" stroke="#528491" stroke-opacity="0.25" stroke-width="2" stroke-linecap="round" stroke-linejoin="round"/>
<path d="M3241.85 471.903C3114.64 476.593 3056.13 542.907 2877.16 574.761C2718.19 599.512 2644.46 570.454 2553 510.403C2337.25 362.344 2252.95 208.673 1972.18 236.623C1588.38 283.42 1446.11 726.34 1053.7 696.454C911.951 680.731 818.94 608.31 675.5 533.972C475.071 433.28 453.171 474.595 0.154297 471.903" stroke="#528491" stroke-opacity="0.25" stroke-width="2" stroke-linecap="round" stroke-linejoin="round"/>
<path d="M3241.85 471.903C3116.19 476.977 3054.32 545.048 2877.16 577.855C2720.1 603.305 2645.93 574.359 2553 511.95C2337.83 360.983 2253.48 204.651 1972.18 229.891C1588.77 273.427 1451.51 741.705 1053.7 702.883C918.09 684.933 828.041 616.398 689.01 541.385C478.577 430.836 455.916 474.917 0.154297 471.903" stroke="#528491" stroke-opacity="0.25" stroke-width="2" stroke-linecap="round" stroke-linejoin="round"/>
<path d="M3241.85 471.903C3116.35 477.416 3053.74 547.003 2877.16 580.949C2720.19 607.395 2645.17 576.766 2553 513.491C2337.46 358.941 2254.08 200.629 1972.18 223.159C1727.74 248.868 1558.61 487.966 1364.36 628.971C1078.04 826.432 851.666 628.396 675.5 534.609C476.679 432.178 455.886 475.214 0.154297 471.903" stroke="#528491" stroke-opacity="0.25" stroke-width="2" stroke-linecap="round" stroke-linejoin="round"/>
<path d="M3241.85 471.903C3123.89 477.485 3058.09 543.86 2890.68 581.345C2725.33 614.294 2647.99 578.672 2566.5 524.499C2354.14 375.543 2266.34 202.077 1985.7 215.474C1737.61 232.898 1578.36 470.195 1377.88 627.294C1095.26 838.795 875.619 642.863 675.506 534.925C479.406 432.661 460.609 474.88 0.154297 471.903" stroke="#528491" stroke-opacity="0.25" stroke-width="2" stroke-linecap="round" stroke-linejoin="round"/>
<path d="M3241.85 471.903C3121.38 478.029 3036.15 558.246 2863.67 589.488C2711.34 613.094 2637.51 579.693 2539.49 506.381C2328.27 342.203 2239.39 185.692 1958.69 210.765C1719.46 240.02 1544.93 514.208 1350.86 655.677C1078.23 842.298 847.116 625.679 661.996 528.032C477.576 434.61 460.121 475.146 0.154297 471.903" stroke="#528491" stroke-opacity="0.25" stroke-width="2" stroke-linecap="round" stroke-linejoin="round"/>
<path d="M3241.85 471.903C3122.28 478.475 3045.92 553.673 2877.16 589.451C2723.89 618.044 2646.43 585.738 2553 517.346C2336.81 352.19 2253.62 185.995 1972.18 201.799C1732.37 222.546 1561.73 498.814 1364.36 654.242C1094.76 854.778 858.325 635.493 675.5 534.832C481.026 431.566 459.929 475.48 0.154297 471.903" stroke="#528491" stroke-opacity="0.25" stroke-width="2" stroke-linecap="round" stroke-linejoin="round"/>
<path d="M3241.85 471.903C3123.2 478.889 3044.64 555.344 2877.16 591.864C2719.63 622.109 2642.38 585.014 2553 518.212C2342.46 353.979 2246.55 171.077 1958.69 195.178C1730.24 223.152 1558.4 506.517 1364.37 662.657C1095.59 866.597 858.437 632.325 662.002 527.302C477.804 432.939 459.416 475.814 0.154297 471.903" stroke="#528491" stroke-opacity="0.25" stroke-width="2" stroke-linecap="round" stroke-linejoin="round"/>
<path d="M3241.85 471.903C3122.43 479.428 3044.95 556.724 2877.16 594.271C2722.76 624.757 2645.17 589.376 2553 519.072C2343.16 351.998 2245.16 164.116 1958.69 187.388C1726.95 215.727 1545.8 530.723 1350.86 681.523C1094.24 866.597 855.766 631.224 661.996 526.936C478.472 432.376 461.92 476.173 0.154297 471.903" stroke="#528491" stroke-opacity="0.25" stroke-width="2" stroke-linecap="round" stroke-linejoin="round"/>
<path d="M3241.85 471.903C3125.63 479.687 3041 559.038 2877.16 596.678C2719.04 628.73 2641.47 588.776 2553 519.926C2345.14 351.076 2244.02 157.204 1958.69 179.585C1729.53 207.609 1545.61 536.583 1350.86 690.124C1097.75 875.717 855.395 631.353 661.996 526.559C478.219 431.368 460.412 476.494 0.154297 471.903" stroke="#528491" stroke-opacity="0.25" stroke-width="2" stroke-linecap="round" stroke-linejoin="round"/>
<path d="M3241.85 471.903C3121.41 480.467 3044.65 559.552 2877.16 598.992C2719.26 631.861 2641.51 590.96 2553 520.705C2348.19 351.058 2243.02 150.033 1958.69 171.875C1725.97 200.604 1534.5 562.027 1337.35 708.693C1085.09 880.927 840.42 613.985 634.983 512.451C469.049 435.056 449.418 476.773 0.148438 471.897" stroke="#528491" stroke-opacity="0.25" stroke-width="2" stroke-linecap="round" stroke-linejoin="round"/>
<path d="M3241.85 471.903C3121.67 480.944 3043.72 560.622 2877.16 600.749C2719.16 634.404 2641.66 592.761 2553 521.015C2349.62 349.27 2241.13 141.556 1958.69 164.623C1734.29 194.138 1547.37 547.919 1350.86 706.602C1106.3 889.299 864.805 635.685 661.996 525.557C478.231 430.285 456.553 477.33 0.154297 471.903" stroke="#528491" stroke-opacity="0.25" stroke-width="2" stroke-linecap="round" stroke-linejoin="round"/>
<path d="M3241.85 471.903C3123.29 481.308 3040.9 562.2 2877.16 602.513C2713.96 638.086 2636.96 590.564 2553 521.324C2351.28 347.754 2239.43 133.078 1958.69 157.371C1736.57 188.378 1549.38 553.203 1350.86 714.559C1105.74 898.457 862.171 628.315 648.486 517.977C474.472 432.791 453.017 477.819 0.154297 471.903" stroke="#528491" stroke-opacity="0.25" stroke-width="2" stroke-linecap="round" stroke-linejoin="round"/>
<path d="M3241.85 471.903C3121.49 481.946 3029.78 570.213 2863.67 607.277C2582.82 661.432 2510.17 443.7 2269.36 247.334C2202.04 195.153 2145.53 163.41 2053.22 151.487C2014.15 147.595 1983.88 146.394 1945.18 152.112C1722.24 199.249 1522.29 606.102 1323.85 741.934C1084.48 888.551 838.843 604.276 621.485 504.617C459.336 435.186 379.94 477.949 135.228 475.548C68.4642 474.391 72.6316 472.924 0.154297 471.903" stroke="#528491" stroke-opacity="0.25" stroke-width="2" stroke-linecap="round" stroke-linejoin="round"/>
<path d="M3241.85 471.903C3123.45 482.286 3039.1 564.477 2877.16 606.027C2723.86 640.982 2646.21 601.671 2553 521.943C2353.06 343.459 2236.3 116.192 1958.69 142.867C1741.88 176.627 1551.46 565.282 1350.86 730.474C1117.57 906.94 882.155 642.324 661.996 523.737C479.894 430.396 462.823 478.895 0.154297 471.903" stroke="#528491" stroke-opacity="0.25" stroke-width="2" stroke-linecap="round" stroke-linejoin="round"/>
<path d="M3241.85 471.903C3126.06 482.515 3035.15 566.284 2877.16 607.686C2594.53 673.535 2522.83 461.186 2282.85 248.998C2194.61 174.165 2098 121.761 1958.69 136.03C1836.47 156.245 1728.87 289.849 1634.51 407.978C1408.69 693.317 1313.54 890.543 1013.18 745.671C789.472 631.378 678.054 462.578 418.868 465.128C327.811 467.343 267.712 476.686 148.726 476.123C79.9587 475.263 76.2675 473.147 0.148438 471.909" stroke="#528491" stroke-opacity="0.25" stroke-width="2" stroke-linecap="round" stroke-linejoin="round"/>
<path d="M3241.85 471.903C3123.5 483.183 3036.36 566.296 2877.16 608.83C2722.18 645.69 2645.31 603.713 2553 522.005C2357.84 341.721 2232.82 99.3059 1958.69 131.117C1747.23 169.691 1554.76 577.997 1350.86 744.706C1116.33 919.91 873.981 622.412 634.977 509.45C470.954 436.677 458.396 480.102 0.142578 471.897" stroke="#528491" stroke-opacity="0.25" stroke-width="2" stroke-linecap="round" stroke-linejoin="round"/>
<path d="M3241.85 471.903C3123.64 483.592 3034.87 567.033 2877.16 609.975C2723.39 647.312 2646.52 605.984 2553 521.838C2360.27 340.879 2231.21 90.86 1958.69 126.21C1744.41 168.911 1545.33 607.927 1337.35 761.19C1113.39 909.013 863.352 615.105 634.983 509.141C471.739 438.15 462.001 480.913 0.148438 471.897" stroke="#528491" stroke-opacity="0.25" stroke-width="2" stroke-linecap="round" stroke-linejoin="round"/>
<path d="M3241.85 471.903C3123.19 484.05 3034.03 567.602 2877.16 611.12C2722.88 649.329 2646.46 607.129 2553 521.677C2364.68 342.024 2230.41 82.3517 1958.69 121.309C1748.3 166.814 1545.46 616.367 1337.35 767.587C1113.05 912.998 861.59 605.458 621.479 503.083C458.588 438.57 381.912 481.89 135.223 476.822C68.885 474.96 68.5202 473.339 0.148438 471.903" stroke="#528491" stroke-opacity="0.25" stroke-width="2" stroke-linecap="round" stroke-linejoin="round"/>
<path d="M3241.85 471.903C3122.72 484.538 3019.68 576.234 2863.67 615.674C2583.21 677.563 2516.34 440.47 2269.36 218.821C2203.87 162.996 2146.77 126.68 2053.22 114.899C2013.52 111.254 1983.83 110.543 1945.18 119.558C1738.77 185.203 1531.45 650.461 1323.85 782.574C1107.87 901.866 858.894 602.061 621.485 502.891C458.328 439.641 382.277 482.874 135.228 477.113C68.019 475.059 68.2231 473.444 0.154297 471.903" stroke="#528491" stroke-opacity="0.25" stroke-width="2" stroke-linecap="round" stroke-linejoin="round"/>
<path d="M3241.85 471.903C3123.48 484.842 3030.87 569.093 2877.16 613.285C2725.55 652.348 2649.2 611.949 2553 521.244C2372.12 343.298 2228.72 65.6945 1958.69 112.306C1753.98 163.843 1549.65 630.549 1337.35 779.839C1119.9 915.034 873.32 605.458 621.479 502.78C458.86 441.311 378.926 483.833 135.223 477.435C68.7737 475.214 67.4134 473.543 0.148438 471.909" stroke="#528491" stroke-opacity="0.25" stroke-width="2" stroke-linecap="round" stroke-linejoin="round"/>
<path d="M3241.85 471.903C3122.93 485.182 3029.73 569.205 2877.16 613.83C2724.84 653.815 2648.62 611.974 2553 520.607C2378.35 346.541 2271.77 139.254 2066.73 108.922C1881.27 88.849 1832.23 171.046 1566.97 533.137C1363.89 806.793 1290.51 845.979 1134.75 796.787C957.31 734.508 822.514 587.019 634.983 508.287C474.627 445.402 465.853 484.273 0.148438 471.903" stroke="#528491" stroke-opacity="0.25" stroke-width="2" stroke-linecap="round" stroke-linejoin="round"/>
<path d="M3241.85 471.903C3122.32 485.528 3028.54 569.334 2877.16 614.374C2594.24 690.019 2526.91 453.117 2282.85 219.396C2219.52 161.412 2160.92 119.076 2066.74 106.304C2027.74 102.585 1996.45 102.418 1958.7 110.617C1759.54 170.774 1556.33 644.997 1337.36 787.339C1130.54 904.818 894.218 612.902 634.989 508.293C476.135 448.514 472.456 485.559 0.154297 471.903" stroke="#528491" stroke-opacity="0.25" stroke-width="2" stroke-linecap="round" stroke-linejoin="round"/>
<path d="M3241.85 471.903C3128.05 485.145 3033.97 563.295 2890.68 610.829C2605.37 697.091 2545.4 479.328 2296.37 228.808C2207.67 143.43 2114.17 83.2428 1972.19 106.539C1771.64 154.531 1577.78 623.712 1350.86 782.667C1145.21 910.894 914.449 623.427 648.493 513.528C484.241 449.943 480.092 486.84 0.148438 471.909" stroke="#528491" stroke-opacity="0.25" stroke-width="2" stroke-linecap="round" stroke-linejoin="round"/>
<path d="M3241.85 471.903C3121.25 486.215 3025.49 569.891 2877.16 615.457C2602.96 691.424 2542.92 474.756 2296.36 225.275C2208.01 139.792 2114.03 79.3261 1972.18 105.389C1777.52 156.319 1593.54 606.807 1364.36 777.667C1153.95 919.508 932.435 625.809 648.487 513.311C485.645 452.901 482.424 488.041 0.142578 471.909" stroke="#528491" stroke-opacity="0.25" stroke-width="2" stroke-linecap="round" stroke-linejoin="round"/>
<path d="M3241.85 471.903C3122.57 486.308 3021.18 570.9 2877.16 615.859C2725.11 658.697 2650.36 615.785 2553 517.939C2357.04 312.75 2237.1 51.005 1972.18 105.388C1779.78 160.279 1596.58 615.321 1364.36 781.398C1156.35 915.269 940.591 623.353 648.487 513.07C488.73 456.712 486.554 489.39 0.142578 471.903" stroke="#528491" stroke-opacity="0.25" stroke-width="2" stroke-linecap="round" stroke-linejoin="round"/>
<path d="M3241.85 471.903C3122.55 486.376 3017.38 571.42 2877.16 615.785C2726.13 658.981 2651.43 616.627 2553 516.782C2356.14 308.802 2237.18 47.7255 1972.18 109.355C1782.1 169.109 1600.15 624.832 1364.36 782.636C1159.57 905.208 947.244 618.025 648.487 512.767C571.409 487.434 514.755 479.502 432.372 479.365C153.555 482.23 483.45 490.763 0.142578 471.897" stroke="#528491" stroke-opacity="0.25" stroke-width="2" stroke-linecap="round" stroke-linejoin="round"/>
<path d="M3241.84 471.903C3119.83 486.779 3018.15 570.504 2877.16 615.717C2592.62 698.267 2527.14 438.632 2282.85 204.794C2220.07 147.706 2161.83 107.127 2066.74 102.511C2016.15 102.239 1988.05 107.876 1958.7 117.956C1770.33 200.735 1576.1 683.602 1337.36 797.808C1145.49 874.22 933.306 599.271 634.988 508.349C557.435 486.463 501.163 480.974 418.88 481.698C79.9024 487.571 167.51 478.976 0.160156 471.903" stroke="#528491" stroke-opacity="0.25" stroke-width="2" stroke-linecap="round" stroke-linejoin="round"/>
<path d="M3241.85 471.903C3122 486.586 3028.29 562.491 2890.68 611.25C2737.11 661.147 2662.6 622.821 2566.5 528.415C2363.8 319.03 2245.14 38.8833 1972.19 117.287C1781.6 188.285 1597.65 666.512 1350.86 791.979C1154.31 877.326 953.667 597.829 634.983 508.373C557.565 488.288 500.286 483.282 418.874 483.895C81.7948 489.037 204.002 481.148 0.154297 471.903" stroke="#528491" stroke-opacity="0.25" stroke-width="2" stroke-linecap="round" stroke-linejoin="round"/>
<path d="M3241.85 471.903C3118.46 487.094 3013.74 570.609 2877.16 615.569C2724.59 661.129 2650.26 614.684 2553 513.324C2377.1 322.588 2271.64 105.803 2066.73 105.648C2015.79 107.851 1987.86 114.961 1958.69 126.674C1776.01 218.072 1595.66 679.178 1350.86 792.604C1156.07 868.608 963.523 592.761 634.977 508.392C557.405 490.039 498.821 485.59 418.868 486.079C100.412 490.287 184.427 480.82 0.148438 471.897" stroke="#528491" stroke-opacity="0.25" stroke-width="2" stroke-linecap="round" stroke-linejoin="round"/>
<path d="M3241.85 471.903C3116.06 487.41 3013.37 569.966 2877.16 615.34C2725.76 661.135 2651.62 615.637 2553 512.03C2357.54 298.506 2238.58 35.1213 1972.18 126.563C1785.77 206.959 1616.6 665.132 1364.36 786.571C1168.6 867.618 992.435 603.719 661.997 514.778C470.886 467.021 444.336 506.548 40.666 474.329C26.6801 473.364 25.4187 473.215 0.142578 471.903" stroke="#528491" stroke-opacity="0.25" stroke-width="2" stroke-linecap="round" stroke-linejoin="round"/>
<path d="M3241.85 471.903C3114.41 487.44 3012.33 569.242 2877.16 614.647C2725.51 660.961 2651.68 614.498 2553 510.322C2354.43 292.467 2239.4 35.5543 1972.18 135.9C1789.85 220.38 1628.41 657.645 1377.87 778.119C1175.38 862.742 1017.01 603.193 675.5 516.597C472.234 468.717 425.929 509.895 54.1756 475.634C34.0375 473.933 29.7589 473.555 0.148438 471.903" stroke="#528491" stroke-opacity="0.25" stroke-width="2" stroke-linecap="round" stroke-linejoin="round"/>
<path d="M3241.84 471.903C3075.66 491.97 2949.36 621.404 2782.61 632.164C2503.8 636.217 2385.63 120.573 2093.75 118.779C1983.37 124.013 1933.69 160.471 1877.64 220.399C1721.39 398.338 1588.21 676.839 1391.39 770.545C1235.31 835.522 1155.91 728.89 905.137 598.33C627.272 457.863 454.247 503.782 216.275 490.448C116.432 484.105 83.9338 476.909 0.160156 471.909" stroke="#528491" stroke-opacity="0.25" stroke-width="2" stroke-linecap="round" stroke-linejoin="round"/>
<path d="M3241.85 471.903C3115.04 487.069 3021.71 560.053 2890.68 608.651C2737.81 660.906 2664.26 620.729 2566.5 521.293C2361.17 302.367 2249.21 32.708 1972.19 154.562C1789.26 251.034 1626.47 701.912 1364.37 778.138C1165.06 823.623 1026.77 572.088 662.002 510.681C589.043 499.494 520.189 495.85 445.888 495.095C84.3051 493.925 212.615 485.429 0.154297 471.897" stroke="#528491" stroke-opacity="0.25" stroke-width="2" stroke-linecap="round" stroke-linejoin="round"/>
<path d="M3241.85 471.903C3108.89 487.626 3009.83 566.847 2877.16 612.58C2724.83 660.374 2651.91 611.151 2553 505.193C2377.85 310.597 2273.25 98.7491 2066.73 133.054C2016.37 143.597 1988.1 154.983 1958.69 171.436C1782.32 287.529 1623.51 716.422 1364.37 775.322C1164.61 808.569 1038.83 565.35 675.506 511.133C461.976 482.367 428.019 516.195 54.1814 476.315C33.9197 474.329 29.8142 473.908 0.154297 471.897" stroke="#528491" stroke-opacity="0.25" stroke-width="2" stroke-linecap="round" stroke-linejoin="round"/>
<path d="M3241.85 471.903C3106.69 487.669 3010.12 565.597 2877.16 611.726C2725.32 659.73 2652.64 610.464 2553 503.33C2350.35 277.53 2243.38 37.6273 1972.18 174.455C1790.96 281.583 1640.51 711.725 1377.87 769.147C1169.81 802.548 1055.95 557.095 689.01 510.465C612.137 501.777 523.59 500.026 445.882 499.457C135.346 498.727 161.469 483.474 0.148438 471.897" stroke="#528491" stroke-opacity="0.25" stroke-width="2" stroke-linecap="round" stroke-linejoin="round"/>
<path d="M3241.85 471.903C3060.86 492.484 2934.31 627.759 2769.12 629.169C2501.38 615.94 2379.23 87.797 2080.26 147.217C1968.12 174.858 1926.38 214.539 1864.15 290.116C1705.56 489.953 1580.74 734.335 1377.88 762.996C1219.38 776.417 1123 642.374 905.131 554.682C734.702 489.959 605.1 503.566 337.833 501.134C181.063 498.646 119.196 480.962 0.154297 471.897" stroke="#528491" stroke-opacity="0.25" stroke-width="2" stroke-linecap="round" stroke-linejoin="round"/>
<path d="M3241.85 471.903C3108.79 486.661 3018.73 556.167 2890.68 604.449C2740.43 656.797 2667.59 617.462 2566.5 513.286C2351.68 281.973 2255.12 40.7706 1972.19 202.065C1846.39 284.188 1753.64 490.064 1593.99 648.394C1359.89 868.212 1223.49 704.789 1013.19 590.298C788.661 472.293 674.844 508.918 324.323 502.489C179.536 498.727 110.96 480.826 0.154297 471.903" stroke="#528491" stroke-opacity="0.25" stroke-width="2" stroke-linecap="round" stroke-linejoin="round"/>
<path d="M3241.85 471.903C3106.99 486.481 3018.61 554.824 2890.68 603.162C2740.34 655.628 2667.99 615.754 2566.5 511.016C2341.64 268.718 2263.51 57.1803 1985.71 207.727C1798.85 320.367 1665.67 725.165 1404.89 750.343C1180.43 759.5 1081.13 510.112 716.03 499.556C613.25 497.941 670.925 503.201 378.351 504.617C194.295 504.376 129.318 482.868 0.148438 471.897" stroke="#528491" stroke-opacity="0.25" stroke-width="2" stroke-linecap="round" stroke-linejoin="round"/>
<path d="M3241.85 471.903C3105.06 486.29 3018.84 553.37 2890.68 601.869C2739.11 654.873 2667.14 612.778 2566.5 508.738C2337.92 262.302 2264.18 60.5278 1985.71 221.086C1853.25 305.275 1767.07 506.697 1607.5 655.968C1379.83 856.047 1234.45 676.907 1026.69 565.572C808.126 453.483 713.513 509.116 351.331 506.14C191.55 503.702 121.577 482.769 0.148438 471.903" stroke="#528491" stroke-opacity="0.25" stroke-width="2" stroke-linecap="round" stroke-linejoin="round"/>
<path d="M3241.85 471.903C3095.73 486.822 3011.05 558.345 2877.16 605.142C2725.52 653.412 2652.36 598.775 2553 491.722C2330.1 244.011 2248.71 59.7481 1972.18 244.234C1790.5 379.366 1657.89 770.966 1391.38 739.52C1169.74 701.924 1072.85 468.729 716.024 489.309C569.901 499.407 616.156 505.576 391.855 507.563C200.565 508.151 136.187 484.675 0.148438 471.903" stroke="#528491" stroke-opacity="0.25" stroke-width="2" stroke-linecap="round" stroke-linejoin="round"/>
<path d="M3241.85 471.903C3094.32 486.382 3010.64 556.94 2877.16 603.305C2725.04 651.414 2651.41 594.537 2553 488.833C2382.46 300.139 2279.68 114.354 2080.25 198.581C2041.2 216.798 2006.26 236.821 1972.18 260.538C1788.77 401.586 1659.95 784.604 1391.38 730.523C1262.55 698.106 1168.16 600.861 1026.69 529.783C914.634 476.674 832.116 469.558 702.52 484.161C276.529 535.791 195.025 491.005 0.148438 471.897" stroke="#528491" stroke-opacity="0.25" stroke-width="2" stroke-linecap="round" stroke-linejoin="round"/>
<path d="M3241.85 471.903C3092.61 485.98 3010.87 555.294 2877.16 601.467C2724.82 649.316 2651.24 591.127 2553 485.949C2382.4 298.011 2280.08 116.786 2080.25 210.697C2042.24 230.188 2006.15 252.228 1972.18 276.849C1786.92 424.029 1661.74 798.594 1391.38 721.533C1255.27 676.158 1151.26 562.819 999.675 499.104C885.716 454.992 803.167 460.994 675.506 482.577C333.351 541.44 148.293 487.057 0.154297 471.903" stroke="#528491" stroke-opacity="0.25" stroke-width="2" stroke-linecap="round" stroke-linejoin="round"/>
<path d="M3241.85 471.903C3090.71 485.578 3011.35 553.587 2877.16 599.629C2725.1 647.052 2651.62 588.3 2553 483.06C2382.29 295.82 2280.51 119.187 2080.25 222.8C2042.71 243.794 2005.64 267.939 1972.18 293.154C1785.77 445.952 1663.4 812.782 1391.38 712.536C1257.22 656.822 1149.78 540.327 999.676 480.826C872.207 434.851 783.406 454.887 648.493 483.332C359.876 543.26 124.099 485.114 0.148438 471.909" stroke="#528491" stroke-opacity="0.25" stroke-width="2" stroke-linecap="round" stroke-linejoin="round"/>
<path d="M3241.84 471.903C3047.99 488.678 2936.92 609.381 2782.61 615.086C2510.04 608.997 2393.89 72.9405 2093.75 227.28C1838.59 371.409 1807.95 563.976 1621.01 691.702C1379.52 839.86 1223.57 508.299 945.654 447.617C775.262 416.938 664.834 497.731 472.907 507.136C204.57 517.457 172.11 490.949 0.160156 471.903" stroke="#528491" stroke-opacity="0.25" stroke-width="2" stroke-linecap="round" stroke-linejoin="round"/>
<path d="M3241.85 471.903C3095.31 483.982 3020.34 543.699 2890.68 591.202C2739.8 642.176 2668.05 595.186 2566.5 491.339C2468.1 387.083 2412.75 307.261 2323.38 243.64C2197.57 162.841 2121.73 213.141 1999.2 304.359C1791.95 464.014 1680.15 820.845 1418.4 707.27C1307.52 653.369 1206.05 546.805 1067.21 472.547C772.74 325.131 713.433 573.598 162.236 495.614C87.094 484.52 66.5602 479.508 0.148438 471.897" stroke="#528491" stroke-opacity="0.25" stroke-width="2" stroke-linecap="round" stroke-linejoin="round"/>
<path d="M3241.85 471.903C3093.29 483.493 3022.54 541.304 2890.68 588.881C2740.14 638.927 2668.38 591.344 2566.5 487.657C2464.2 379.96 2403.32 293.494 2309.86 236.994C2190.43 173.416 2114.92 227.762 1985.71 330.57C1786.1 496.227 1674.09 842.099 1404.89 689.542C1298.86 624.522 1191.65 511.64 1053.71 444.931C763.596 315.813 714.292 579.303 135.223 491.698C56.9456 479.533 54.9299 478.344 0.148438 471.909" stroke="#528491" stroke-opacity="0.25" stroke-width="2" stroke-linecap="round" stroke-linejoin="round"/>
<path d="M3241.85 471.903C3092.29 482.886 3022.47 539.726 2890.68 586.555C2740.19 635.765 2668.53 587.279 2566.5 483.963C2462.14 374.775 2402.71 291.631 2309.86 239.011C2196.68 183.211 2124.97 227.824 1972.19 357.87C1780.37 530.661 1669.16 849.42 1404.89 678.367C1301.15 606.547 1185.2 480.034 1040.2 418.312C755.045 308.975 713.458 578.449 135.223 491.815C58.108 479.91 57.1558 478.759 0.148438 471.903" stroke="#528491" stroke-opacity="0.25" stroke-width="2" stroke-linecap="round" stroke-linejoin="round"/>
<path d="M3241.85 471.903C3090.91 482.323 3023.37 537.783 2890.68 584.234C2739.41 632.857 2668.32 582.873 2566.5 480.275C2466.37 376.186 2411.26 301.173 2323.38 248.188C2199.11 182.444 2124.51 241.109 1972.19 373.959C1841.26 494.092 1753.79 673.863 1607.5 722.807C1404.42 774.431 1288.54 487.533 1026.69 392.819C814.797 325.843 697.468 483.821 459.392 501.92C211.496 518.546 172.951 493.177 0.148438 471.903" stroke="#528491" stroke-opacity="0.25" stroke-width="2" stroke-linecap="round" stroke-linejoin="round"/>
<path d="M3241.85 471.903C3089.64 481.717 3023.88 536.008 2890.68 581.914C2739.25 629.788 2667.94 578.3 2566.5 476.594C2467 373.798 2410.94 299.317 2323.38 249.71C2205.47 191.793 2131.41 241.295 1958.69 402.663C1834.97 524.393 1748.12 690.823 1607.5 727.949C1407.35 764.283 1303.19 478.877 1040.2 377.114C822.625 303.11 699.966 479.483 459.392 500.175C214.551 518.787 174.305 493.87 0.148438 471.916" stroke="#528491" stroke-opacity="0.25" stroke-width="2" stroke-linecap="round" stroke-linejoin="round"/>
<path d="M3241.85 471.903C3088.83 481.049 3023.26 534.591 2890.68 579.383C2739.66 626.106 2668.54 574.322 2566.5 472.571C2463.95 367.375 2401.91 286.626 2309.86 244.846C2206.86 206.155 2134.45 243.405 1945.18 431.269C1821.85 560.034 1734.16 717.455 1593.99 733.005C1397.54 738.134 1288.17 435.532 1026.69 352.234C816.312 295.678 695.075 474.898 459.397 497.656C216.77 518.589 176.401 494.42 0.154297 471.897" stroke="#528491" stroke-opacity="0.25" stroke-width="2" stroke-linecap="round" stroke-linejoin="round"/>
<path d="M3241.84 471.903C3087.91 480.337 3023.63 532.747 2890.68 576.481C2739.4 621.936 2668.36 568.821 2566.5 467.955C2462.76 362.425 2401.51 284.454 2309.86 246.195C2191.88 206.297 2121.25 275.989 1958.7 430.99C1833.35 555.653 1746.89 714.058 1607.5 732.175C1405.16 741.117 1309.28 429.678 1040.2 336.059C825.697 272.32 698.976 463.723 472.907 492.322C227.553 519.004 174.391 494.197 0.160156 471.903" stroke="#528491" stroke-opacity="0.25" stroke-width="2" stroke-linecap="round" stroke-linejoin="round"/>
<path d="M3241.85 471.903C3087.2 479.607 3023.33 531.132 2890.68 573.573C2739.96 617.512 2669.09 564.223 2566.5 463.333C2468.35 364.306 2410.06 292.578 2323.38 252.692C2195.81 204.076 2124.2 285.289 1958.69 444.127C1832.58 569.829 1746.3 723.847 1607.5 732.85C1404.04 728.252 1310.84 404.383 1040.2 315.584C825.456 256.374 699.898 456.681 472.901 488.288C233.347 517.259 184.89 495.571 0.154297 471.903" stroke="#528491" stroke-opacity="0.25" stroke-width="2" stroke-linecap="round" stroke-linejoin="round"/>
<path d="M3241.85 471.903C3087.58 478.79 3019.77 530.538 2890.68 570.665C2740.08 613.218 2669.34 559.137 2566.5 458.711C2468.18 360.352 2409.8 290.258 2323.38 253.54C2193.27 208.692 2122.29 299.261 1958.69 457.251C1831.8 583.993 1745.63 733.568 1607.5 733.506C1403.04 715.265 1312.36 379.002 1040.2 295.097C822.761 239.773 701.586 453.804 459.392 486.042C227.609 514.27 195.018 496.858 0.148438 471.897" stroke="#528491" stroke-opacity="0.25" stroke-width="2" stroke-linecap="round" stroke-linejoin="round"/>
<path d="M3241.84 471.903C3033.29 480.176 2932.63 587.972 2782.61 582.032C2591.77 562.602 2487.7 305.065 2309.86 250.23C2182.7 221.538 2111.87 309.483 1823.62 616.775C1649.21 796.323 1550.04 762.192 1391.39 573.827C1291.63 452.808 1135.53 228.907 918.64 273.347C746.969 316.877 659.665 455.413 445.893 483.988C231.732 511.424 200.428 497.595 0.160156 471.91" stroke="#528491" stroke-opacity="0.25" stroke-width="2" stroke-linecap="round" stroke-linejoin="round"/>
<path d="M3241.85 471.903C3085.12 477.268 3022.08 526.293 2890.68 564.588C2740.21 604.214 2669.64 548.34 2566.5 449.046C2475.84 359.919 2411.08 285.939 2323.38 254.722C2187.2 217.441 2115.83 330.372 1972.19 468.364C1837.27 599.79 1755.34 739.316 1621.01 734.725C1410.64 708.241 1329.61 348.273 1053.71 258.379C835.368 199.491 708.171 427.191 486.411 473.073C247.567 515.582 159.249 492.069 0.154297 471.897" stroke="#528491" stroke-opacity="0.25" stroke-width="2" stroke-linecap="round" stroke-linejoin="round"/>
<path d="M3241.85 471.903C3084.64 476.358 3021.77 524.418 2890.68 560.987C2742.67 598.119 2672.72 544.745 2566.5 443.304C2479.16 358.248 2412.03 283.006 2323.38 254.19C2185.59 220.77 2113.22 340.638 1972.19 476.204C1836.92 607.314 1754.53 742.639 1621.01 731.26C1408.35 693.533 1331.2 325.076 1053.71 239.271C837.427 184.745 704.875 418.788 486.411 467.003C247.017 512.81 158.94 491.413 0.154297 471.909" stroke="#528491" stroke-opacity="0.25" stroke-width="2" stroke-linecap="round" stroke-linejoin="round"/>
<path d="M3241.85 471.903C3084.1 475.424 3021.72 522.444 2890.68 557.38C2741.99 592.786 2672.02 537.511 2566.5 437.549C2480.61 354.727 2412.44 279.85 2323.38 253.639C2184.22 224.235 2112.31 350.099 1972.19 484.019C1839.69 611.825 1761.33 735.096 1634.52 729.608C1418.95 700.253 1342.88 320.435 1067.22 224.087C847.61 159.815 715.597 398.988 499.921 457.74C265.01 512.866 131.506 487.67 0.154297 471.903" stroke="#528491" stroke-opacity="0.25" stroke-width="2" stroke-linecap="round" stroke-linejoin="round"/>
<path d="M3241.85 471.903C3031.77 475.331 2930.95 575.689 2782.61 562.943C2593.35 534.999 2486.94 282.511 2309.86 250.675C2165.19 236.988 2109.19 370.153 1823.62 641.192C1635.63 811.211 1532.15 707.975 1391.39 513.156C1290.21 370.456 1141.56 138.901 918.641 207.999C750.265 268.805 656.524 421.535 459.397 460.444C245.787 500.094 205.764 495.72 0.154297 471.903" stroke="#528491" stroke-opacity="0.25" stroke-width="2" stroke-linecap="round" stroke-linejoin="round"/>
<path d="M3241.85 471.903C3083.02 473.537 3021.01 518.694 2890.68 550.171C2743.3 581.592 2673.82 526.095 2566.5 426.059C2483.92 347.785 2413.15 273.44 2323.38 252.562C2184.61 231.951 2110.98 364.986 1985.7 486.797C1833.23 632.263 1752.46 752.112 1621.01 720.821C1400.89 647.627 1325.97 236.072 1040.2 179.208C826.866 149.816 701.388 399 472.901 451.874C247.623 499.296 191.636 493.48 0.154297 471.903" stroke="#528491" stroke-opacity="0.25" stroke-width="2" stroke-linecap="round" stroke-linejoin="round"/>
<path d="M3241.85 471.903C3082.51 472.51 3021.05 516.578 2890.68 546.267C2743.05 575.726 2673.56 518.8 2566.5 419.859C2489.63 347.84 2415.44 270.166 2323.38 251.356C2183.96 234.631 2109.92 371.805 1985.7 492.255C1833.75 636.099 1751.9 752.409 1621.01 715.549C1399.45 632.158 1326.27 213.834 1040.2 161.529C823.898 135.405 703.429 394.081 459.391 448.557C252.063 492.453 210.253 494.167 0.154297 471.903" stroke="#528491" stroke-opacity="0.25" stroke-width="2" stroke-linecap="round" stroke-linejoin="round"/>
<path d="M3241.85 471.903C3027.72 471.086 2931.6 565.288 2782.61 546.675C2599.85 512.686 2495.56 280.06 2323.38 249.122C2228.72 240.088 2165.36 302.435 2107.28 363.811C1830.59 665.243 1743.84 735.758 1634.52 711.787C1388.25 634.49 1284.04 64.4013 945.66 153.182C770.817 209.013 668.482 388.394 472.914 438.527C251.147 490.732 195.624 490.714 0.154297 471.903" stroke="#528491" stroke-opacity="0.25" stroke-width="2" stroke-linecap="round" stroke-linejoin="round"/>
<path d="M3241.85 471.903C3082.3 470.096 3019.5 512.253 2890.68 537.554C2731.76 564.329 2666.06 496.883 2525.97 369.008C2467.17 316.048 2397.7 252.173 2309.86 245.942C2173.68 247.984 2104.81 386.13 1972.19 508.392C1837.55 631.694 1757.92 735.294 1634.52 704.232C1411.12 626.867 1342.88 211.581 1067.22 134.724C845.966 86.6027 710.119 360.828 486.411 427.89C245.564 492.564 157.988 485.696 0.154297 471.903" stroke="#528491" stroke-opacity="0.25" stroke-width="2" stroke-linecap="round" stroke-linejoin="round"/>
<path d="M3241.85 471.903C3074.98 468.766 3006.19 515.533 2877.16 535.265C2728.61 553.333 2666.2 488.511 2525.97 362.567C2238.94 108.105 2194.93 309.056 1945.18 534.43C1824.22 645.313 1737.45 746.624 1607.5 685.162C1387.26 560.4 1320.2 153.294 1040.2 113.773C824.875 97.1218 703.979 364.442 459.391 428.014C259.433 477.813 210.315 488.313 0.154297 471.903" stroke="#528491" stroke-opacity="0.25" stroke-width="2" stroke-linecap="round" stroke-linejoin="round"/>
<path d="M3241.85 471.903C3072.96 467.46 3008.26 512.686 2877.16 530.698C2724.61 546.879 2657.53 472.602 2525.97 356.125C2238.28 105.091 2193.27 315.769 1945.18 535.661C1821.29 646.909 1730.16 750.126 1593.99 668.647C1376.47 518.496 1305.96 114.583 1026.69 97.0042C893.525 97.1774 803.42 197.461 662.002 312.075C543.202 405.936 507.254 408.739 378.357 442.215C223.448 481.587 153.889 482.614 0.154297 471.903" stroke="#528491" stroke-opacity="0.25" stroke-width="2" stroke-linecap="round" stroke-linejoin="round"/>
<path d="M3241.85 471.897C3074.52 466.143 3005.18 510.378 2877.16 525.866C2618.86 549.088 2513.49 239.717 2309.86 239.63C2172.22 251.319 2103.64 395.393 1972.18 510.985C1826.91 636.935 1741.54 737.918 1607.49 667.149C1380.36 526.144 1313.18 97.6601 1026.68 83.0696C893.179 84.9321 802.437 187.45 661.99 302.961C543.468 398.029 507.637 401.19 378.344 436.33C223.089 477.905 153.406 480.925 0.154297 471.909" stroke="#528491" stroke-opacity="0.25" stroke-width="2" stroke-linecap="round" stroke-linejoin="round"/>
<path d="M3241.85 471.885C3080.88 465.029 3017.85 502.551 2890.68 519.27C2730.47 535.878 2667.86 464.125 2525.97 342.11C2465.25 290.833 2397.45 234.76 2309.86 236.264C2172.33 250.267 2102.94 394.953 1972.19 506.993C1829.33 627.418 1741.84 728.314 1607.5 656.005C1381.19 513.416 1311.65 83.4284 1026.69 71.5542C893.346 74.6233 802.499 177.908 661.996 294.478C559.278 377.584 519.002 390.677 432.372 414.983C250.733 466.322 193.615 480.665 0.154297 471.922" stroke="#528491" stroke-opacity="0.25" stroke-width="2" stroke-linecap="round" stroke-linejoin="round"/>
<path d="M3241.85 471.866C3079.89 463.587 3018.38 499.741 2890.68 514.295C2738.53 527.413 2676.45 464.051 2539.49 346.306C2479.31 295.319 2410.77 236.573 2323.38 232.415C2182.31 237.341 2108.2 384.997 1985.71 491.71C1739.69 696.967 1652.28 793.081 1404.9 408.083C1314.57 264.684 1223.1 78.2926 1040.2 60.4721C825.061 53.4614 706.248 326.239 459.397 400.51C265.257 456.805 208.936 478.518 0.154297 471.934" stroke="#528491" stroke-opacity="0.25" stroke-width="2" stroke-linecap="round" stroke-linejoin="round"/>
<path d="M3241.85 471.854C3079.55 462.201 3017.92 497.056 2890.68 509.339C2738.23 519.845 2677.27 455.778 2539.49 338.899C2478.69 288.154 2410.67 231.37 2323.38 228.82C2182.28 236.208 2108 384.113 1985.71 488.035C1736.78 690.106 1649.87 777.618 1404.9 396.03C1311.31 247.346 1221.64 64.8964 1040.2 48.8394C825.32 43.7964 706.582 317.038 459.397 393.623C265.362 451.769 206.995 475.647 0.154297 471.947" stroke="#528491" stroke-opacity="0.25" stroke-width="2" stroke-linecap="round" stroke-linejoin="round"/>
<path d="M3241.85 471.841C3079.38 460.79 3016.78 494.408 2890.68 504.37C2628.16 517.884 2526.69 227.447 2323.38 225.207C2178.39 235.348 2106.5 389.013 1972.19 495.008C1829.13 605.359 1741.42 698.75 1607.5 622.579C1376.86 470.765 1310.01 41.0737 1026.69 37.0022C893.995 43.7406 803.074 148.962 661.996 269.034C556.996 356.243 519.49 368.142 418.868 399.247C247.976 453.154 184.643 472.738 0.154297 471.953" stroke="#528491" stroke-opacity="0.25" stroke-width="2" stroke-linecap="round" stroke-linejoin="round"/>
<path d="M3241.85 471.817C3078.61 459.299 3016.56 491.586 2890.68 499.296C2732.5 504.679 2674.56 433.311 2525.97 313.084C2238.44 86.2191 2183.44 331.839 1945.18 509.345C1824.59 600.081 1737.17 685.019 1607.5 611.206C1378.68 460.722 1316.17 48.1772 1040.2 28.0116C825.747 26.31 707.874 299.44 459.391 380.326C269.01 440.538 204.058 469.905 0.154297 471.953" stroke="#528491" stroke-opacity="0.25" stroke-width="2" stroke-linecap="round" stroke-linejoin="round"/>
<path d="M3241.85 471.786C3077.27 457.764 3016.68 488.604 2890.68 494.105C2630.24 498.38 2527.85 213.524 2323.38 217.218C2178.63 231.246 2106.46 382.745 1972.19 481.265C1827.92 584.525 1747.46 666.592 1621.01 607.098C1383.37 474.484 1314.32 23.1172 1026.69 21.7683C894.144 29.7628 803.519 134.836 662.002 255.607C557.101 342.989 519.7 355.235 418.874 387.522C248.291 443.075 183.666 467.324 0.154297 471.928" stroke="#528491" stroke-opacity="0.25" stroke-width="2" stroke-linecap="round" stroke-linejoin="round"/>
<path d="M3241.85 471.755C3075.76 456.168 3016.56 485.652 2890.68 488.907C2632.86 488.641 2527.39 206.724 2323.38 213.079C2182.13 228.468 2108.9 372.115 1985.7 463.791C1748.39 630.846 1655.2 729.23 1418.4 378.11C1292.46 187.61 1222.81 38.741 1053.71 16.5582C837.47 2.18422 709.142 281.119 472.901 364.281C255.809 436.603 186.028 464.447 0.154297 471.903" stroke="#528491" stroke-opacity="0.25" stroke-width="2" stroke-linecap="round" stroke-linejoin="round"/>
<path d="M3241.85 471.724C3074.04 454.491 3017.65 482.67 2890.68 483.709C2634.19 478.895 2528.22 199.905 2323.38 208.933C2182.62 225.937 2108.15 368.73 1985.7 456.23C1748.66 616.045 1655.33 716.49 1418.4 369.825C1289.08 176.708 1221.19 31.7676 1053.71 10.3335C837.94 -3.27941 709.414 274.325 472.901 358.452C251.883 432.896 182.751 461.805 0.154297 471.885" stroke="#528491" stroke-opacity="0.25" stroke-width="2" stroke-linecap="round" stroke-linejoin="round"/>
<path d="M3241.85 471.693C3066.32 452.146 3002.66 482.571 2877.16 478.023C2626.85 461.366 2509.25 164.883 2296.36 209.416C2199.29 237.044 2137.89 313.845 2053.22 394.502C2003.48 440.086 1993.49 443.397 1931.66 483.023C1802.71 567.757 1715.95 640.474 1580.48 547.127C1354.49 373.123 1277.35 -30.9693 999.681 6.1135C867.155 32.1513 776.586 145.355 634.989 259.61C534.571 337.971 496.267 344.462 405.37 375.264C246.152 429.939 172.629 459.751 0.154297 471.86" stroke="#528491" stroke-opacity="0.25" stroke-width="2" stroke-linecap="round" stroke-linejoin="round"/>
<path d="M3241.85 471.662C3065.18 450.488 3001.98 479.359 2877.16 472.751C2728.45 460.388 2679.38 391.049 2525.97 276.892C2244.58 74.6295 2183.32 322.446 1945.18 464.831C1823.51 539.361 1737.25 619.3 1607.5 553.859C1369.34 414.296 1302.98 -1.29947 1026.69 0.160821C894.824 9.33096 803.921 113.148 662.002 233.115C560.261 317.106 520.226 332.247 432.378 361.416C262.153 418.423 184.148 456.496 0.154297 471.829" stroke="#528491" stroke-opacity="0.25" stroke-width="2" stroke-linecap="round" stroke-linejoin="round"/>
<path d="M3241.85 471.631C3014.22 442.438 2915.15 500.843 2769.12 441.763C2601.55 364.98 2483.77 173.224 2309.86 199.441C2216.13 220.467 2149.34 292.337 2080.26 357.116C2012.27 419.556 2025.58 406.048 1850.62 512.482C1777.79 555.22 1717.16 581.821 1634.51 555.79C1368.45 450.729 1285.24 -89.0901 959.158 13.087C787.827 76.6468 675.005 266.578 486.411 339.357C257.516 421.14 157.982 456.409 0.154297 471.792" stroke="#528491" stroke-opacity="0.25" stroke-width="2" stroke-linecap="round" stroke-linejoin="round"/>
<path d="M3241.85 471.6C3058.49 446.521 3003.41 473.227 2877.16 462.566C2720.21 444.603 2667.3 361.534 2512.48 254.709C2245.09 79.2579 2169.67 324.488 1958.7 436.776C1825.16 508.516 1741.4 593.912 1607.5 534.219C1367.98 408.653 1297.92 0.346426 1026.69 0.185547C895.287 8.4956 803.767 110.636 662.002 227.979C557.547 312.434 519.892 325.261 418.874 358.334C256.984 412.427 170.62 452.715 0.154297 471.748" stroke="#528491" stroke-opacity="0.25" stroke-width="2" stroke-linecap="round" stroke-linejoin="round"/>
<path d="M3241.85 471.575C3066.75 446.162 3012.94 467.918 2890.68 458.829C2740.72 443.786 2697.66 382.219 2539.49 267.091C2248.45 62.3779 2175.99 315.726 1972.19 420.05C1761.41 525.39 1661.93 665.188 1418.4 346.72C1276.95 156.864 1215.7 22.5355 1053.71 1.16325C840.438 -13.2664 709.785 253.528 472.901 336.882C222.236 420.502 158.878 451.769 0.154297 471.705" stroke="#528491" stroke-opacity="0.25" stroke-width="2" stroke-linecap="round" stroke-linejoin="round"/>
<path d="M3241.85 471.544C3056.86 443.322 3000.37 466.687 2877.16 452.375C2727.23 430.526 2683.14 359.56 2525.97 251.145C2249.58 68.3924 2176.54 315.008 1958.69 416.808C1746.59 517.729 1652.85 650.195 1404.89 326.041C1279.91 158.906 1207.15 12.0598 1040.2 0.303206C829.871 -1.0519 708.69 255.198 459.397 337.699C242.287 407.558 168.406 448.161 0.154297 471.668" stroke="#528491" stroke-opacity="0.25" stroke-width="2" stroke-linecap="round" stroke-linejoin="round"/>
<path d="M3241.85 471.526C3056.49 441.707 2999.55 463.692 2877.16 447.759C2719.69 422.637 2668.02 337.464 2512.48 236.92C2249.62 76.387 2172.56 314.254 1958.7 407.279C1824.83 466.91 1742.53 554.088 1607.5 506.591C1365.85 403.771 1290.29 6.49095 1026.69 3.27954C895.813 9.94367 803.989 108.872 662.002 222.212C557.676 303.561 519.564 316.327 418.874 348.106C243.085 404.73 160.634 447.054 0.154297 471.637" stroke="#528491" stroke-opacity="0.25" stroke-width="2" stroke-linecap="round" stroke-linejoin="round"/>
<path d="M3241.85 471.52C3054.35 439.888 2999.71 461.05 2877.16 443.607C2726.15 417.674 2680.66 343.354 2525.97 241.053C2253.44 68.9865 2171.39 310.999 1972.19 392.757C1768.79 474.657 1663.51 636.681 1418.4 346.461C1269.06 163.893 1213.67 34.4593 1053.71 10.8162C841.668 -7.04147 710.768 250.36 472.901 329.977C185.014 420.991 149.48 446.899 0.154297 471.612" stroke="#528491" stroke-opacity="0.25" stroke-width="2" stroke-linecap="round" stroke-linejoin="round"/>
<path d="M3241.85 471.514C3059.9 439.393 2995.33 457.734 2877.16 439.455C2640.55 395.974 2518.77 129.316 2296.36 186.552C2199.75 217.379 2146.24 279.596 2053.22 343.552C2007.3 373.074 1998.24 373.841 1945.18 394.322C1819.09 446.806 1732.29 536.577 1593.99 489.693C1349.86 389.737 1277.9 7.12207 1013.19 15.9766C882.47 28.4077 790.652 128.326 648.492 234.965C546.72 309.155 513.282 316.673 405.364 349.282C233.309 402.298 151.156 444.696 0.154297 471.594" stroke="#528491" stroke-opacity="0.25" stroke-width="2" stroke-linecap="round" stroke-linejoin="round"/>
<path d="M3241.85 471.501C3055.64 437.178 2997.07 455.327 2877.16 435.297C2640.77 389.007 2520.73 126.161 2296.36 184.863C2199.46 215.999 2145.02 277.913 2053.22 337.804C2006.9 365.902 1998.33 365.902 1945.18 384.824C1749.16 461.137 1646.84 619.894 1391.38 321.048C1271.73 177.302 1193.98 27.9312 1026.69 21.6445C896.295 24.8559 804.082 119.144 661.996 226.135C558.511 302.212 519.836 314.755 418.868 343.738C234.812 397.515 152.998 442.438 0.154297 471.569" stroke="#528491" stroke-opacity="0.25" stroke-width="2" stroke-linecap="round" stroke-linejoin="round"/>
<path d="M3241.85 471.495C3057.83 436.145 2994.42 452.177 2877.16 431.151C2725 399.52 2680.33 322.7 2525.97 227.298C2258.66 70.5767 2183.13 302.021 1958.69 370.927C1767.41 433.336 1656.48 614.084 1404.89 340.298C1262.37 179.727 1201.14 45.8879 1040.19 28.3891C832.085 18.7982 708.468 258.954 459.385 331.041C215.008 398.87 157.951 439.48 0.154297 471.544" stroke="#528491" stroke-opacity="0.25" stroke-width="2" stroke-linecap="round" stroke-linejoin="round"/>
<path d="M3241.85 471.507C3053.73 434.096 2996.02 450.222 2877.16 427.754C2644.5 377.139 2524.31 121.322 2296.36 182.833C2204.91 212.646 2155.19 264.641 2066.73 319.884C2012.4 351.578 2002.2 350.445 1945.18 367.449C1756.51 431.021 1646.48 607.989 1391.38 331.913C1263.05 188.421 1191.12 45.8444 1026.69 36.532C896.747 37.1817 804.824 127.701 661.996 230.602C557.899 303.803 518.371 315.689 418.868 342.086C224.35 394.464 152.893 438.799 0.154297 471.544" stroke="#528491" stroke-opacity="0.25" stroke-width="2" stroke-linecap="round" stroke-linejoin="round"/>
<path d="M3241.85 471.538C3049.34 432.11 2998.11 448.811 2877.16 425.044C2652.34 374.546 2531.81 131.878 2309.86 180.012C2212.58 206.619 2158.18 263.106 2066.73 317.347C2011.95 347.512 2002.18 345.532 1945.18 361.014C1759.5 419.197 1645.61 604.808 1391.38 341.269C1255.65 195.413 1188.88 58.9004 1026.69 47.6884C821.914 46.1229 708.635 269.814 445.881 336.282C205.016 396.327 165.043 434.548 0.154297 471.569" stroke="#528491" stroke-opacity="0.25" stroke-width="2" stroke-linecap="round" stroke-linejoin="round"/>
<path d="M3241.85 471.569C3002.72 421.189 2909.87 455.45 2769.12 383.271C2616.8 297.999 2486.46 131.853 2296.36 184.579C2204.5 214.855 2152.68 266.528 2066.73 314.823C1969.85 364.98 1977.52 328.912 1850.62 394.124C1767.49 437.902 1706.71 474.756 1621 475.653C1333.37 461.217 1255.52 -12.8022 945.648 68.9494C777.464 121.86 668.859 278.266 472.901 331.035C150.037 411.772 165.562 432.803 0.154297 471.588" stroke="#528491" stroke-opacity="0.25" stroke-width="2" stroke-linecap="round" stroke-linejoin="round"/>
<path d="M3241.85 471.594C3048.77 429.784 2982.54 444.82 2863.67 416.393C2645.89 357.796 2520.5 111.1 2282.85 189.924C2187.47 226.283 2142.15 275.698 2053.22 318.839C2005.05 339.765 1997.22 336.77 1945.18 348.137C1757.43 398.134 1639.64 605.155 1377.88 346.652C1247.31 212.67 1177.29 75.0069 1013.19 69.5618C883.422 73.0083 791.524 161.517 648.492 253.843C553.75 313.164 515.15 323.77 418.874 344.889C216.566 389.984 158.724 432.84 0.154297 471.606" stroke="#528491" stroke-opacity="0.25" stroke-width="2" stroke-linecap="round" stroke-linejoin="round"/>
<path d="M3241.85 471.625C3048.13 428.54 2982.27 442.809 2863.67 413.591C2650.72 354.795 2528.17 120.326 2296.36 186.317C2203.07 217.423 2152.92 266.708 2066.73 309.749C2020.95 330.459 2009.4 331.084 1958.69 339.11C1773.8 374.596 1650.73 590.775 1404.89 381.501C1252.25 244.203 1208.49 120.449 1053.7 84.8765C845.186 49.9037 711.899 276.639 472.895 334.469C149.721 406.283 176.506 426.758 0.154297 471.625" stroke="#528491" stroke-opacity="0.25" stroke-width="2" stroke-linecap="round" stroke-linejoin="round"/>
<path d="M3241.85 471.668C3043.56 426.752 2984.5 442.035 2863.67 411.79C2650.53 352.128 2524.67 112.269 2282.85 193.402C2180.58 232.434 2131.7 285.92 2039.73 319.971C1987.92 336.034 1985.05 328.844 1931.66 340.675C1746.8 392.812 1624.86 601.975 1364.37 355.575C1243.74 236.654 1179.56 112.288 1026.69 94.0281C823.41 81.9745 706.712 292.127 445.881 342.797C198.017 389.36 181.681 424.011 0.154297 471.668" stroke="#528491" stroke-opacity="0.25" stroke-width="2" stroke-linecap="round" stroke-linejoin="round"/>
<path d="M3241.85 471.724C3053.27 428.175 2996.92 441.126 2877.16 414.222C2722.78 375.351 2681.08 296.408 2525.97 217.126C2267.18 93.8795 2181.18 312.125 1972.19 332.198C1779.11 352.989 1656.57 583.257 1418.4 414.494C1260.4 294.076 1222.47 165.347 1067.22 116.118C858.894 62.9164 716.401 283.946 486.411 338.41C314.356 374.59 388.33 341.999 94.7049 443.124C54.4782 456.682 38.7363 461.353 0.154297 471.718" stroke="#528491" stroke-opacity="0.25" stroke-width="2" stroke-linecap="round" stroke-linejoin="round"/>
<path d="M3241.85 471.773C3003.9 416.022 2909.87 446.231 2769.12 372.374C2626.67 291.273 2499.98 145.398 2309.86 192.734C2216.29 220.418 2166.37 265.773 2080.26 305.937C1974.26 350.482 1974.72 309.081 1864.15 360.667C1693.4 446.293 1591.28 550.239 1404.89 416.301C1240.78 289.682 1168.3 95.8472 959.158 124.242C792.662 155.342 675.661 300.795 486.411 342.507C408.796 357.561 357.978 358.001 243.283 392.157C142.481 423.367 107.473 442.277 0.154297 471.773" stroke="#528491" stroke-opacity="0.25" stroke-width="2" stroke-linecap="round" stroke-linejoin="round"/>
<path d="M3241.85 471.829C3065.41 429.92 3006.95 439.245 2890.68 415.397C2731.65 379.138 2693.41 304.91 2539.49 225.918C2271.47 97.3694 2187.75 319.816 1972.19 329.333C1775.35 341.015 1649.88 593.732 1404.89 428.404C1252.1 316.933 1218.26 197.406 1067.21 145.652C935.273 108.551 828.357 180.915 702.52 255.31C444.756 405.243 508.992 298.543 94.699 442.499C52.1166 457.04 38.9407 460.926 0.148438 471.823" stroke="#528491" stroke-opacity="0.25" stroke-width="2" stroke-linecap="round" stroke-linejoin="round"/>
<path d="M3241.85 471.879C3014.39 417.081 2919.61 442.803 2782.61 377.418C2649.5 307.689 2522.85 162.891 2336.88 194.089C2238.86 215.139 2182.39 262.642 2093.75 303.345C1982.26 349.975 1980.39 306.606 1877.64 348.459C1724.27 418.621 1607.53 557.491 1418.41 449.04C1241.42 337.34 1182.23 138.301 972.674 149.309C806.425 166.684 686.549 307.503 499.927 348.175C419.604 363.235 369.614 359.269 256.799 388.815C155.094 416.988 122.281 436.621 0.154297 471.879" stroke="#528491" stroke-opacity="0.25" stroke-width="2" stroke-linecap="round" stroke-linejoin="round"/>
<path d="M3241.85 471.903C2997.54 413.188 2902.47 445.94 2755.6 363.173C2596.19 266.893 2485.82 152.149 2296.37 210.319C2198.83 244.085 2151.85 287.739 2066.74 317.341C1965.18 347.141 1964.63 304.545 1850.63 361.07C1696.18 443.322 1579.66 566.606 1391.39 444.176C1229.97 330.206 1160.03 136.364 945.654 166.306C779.745 197.344 667.864 329.29 472.907 357.53C390.797 367.715 339.126 366.533 229.779 397.23C134.418 425.372 114.775 438.7 0.154297 471.909" stroke="#528491" stroke-opacity="0.25" stroke-width="2" stroke-linecap="round" stroke-linejoin="round"/>
<path d="M3241.85 471.903C3053.86 427.414 2981.32 438.378 2863.67 409.03C2661.26 352.877 2541.63 141.333 2296.36 217.385C2200.45 250.756 2149.62 295.022 2066.73 322.316C2019.08 335.378 2006.65 332.216 1958.69 332.049C1774.74 340.44 1641.68 597.791 1404.89 465.647C1252.51 371.65 1219.37 248.163 1067.21 190.853C937.666 149.903 834.014 212.398 702.514 282.028C438.221 419.395 452.943 321.326 148.72 423.825C63.2835 453.204 57.6137 455.475 0.142578 471.903" stroke="#528491" stroke-opacity="0.25" stroke-width="2" stroke-linecap="round" stroke-linejoin="round"/>
<path d="M3241.85 471.903C3059.54 429.431 2992.39 438.527 2877.16 413.306C2723.5 375.722 2679.7 296.656 2525.97 232.706C2270.92 135.665 2186.63 344.301 1972.19 335.149C1772.45 330.868 1646.26 604.679 1404.89 478.345C1252.42 389.44 1219.87 265.26 1067.21 206.186C939.07 164.339 834.441 224.223 716.03 284.67C433.59 427.736 452.671 326.245 162.236 419.853C87.5886 444.486 74.4868 450.834 0.148438 471.903" stroke="#528491" stroke-opacity="0.25" stroke-width="2" stroke-linecap="round" stroke-linejoin="round"/>
<path d="M3241.85 471.903C3052.58 428.503 2995.34 439.548 2877.16 414.216C2664.09 363.099 2555.3 159.048 2309.86 227.249C2209.19 259.103 2152.15 307.311 2066.73 332.272C2019.33 343.404 2007.56 339.598 1958.69 337.668C1771.43 340.056 1633.48 616.652 1391.38 483.617C1243.61 393.654 1208.64 269.201 1053.7 216.971C927.779 181.992 831.028 238.504 702.52 301C433.114 430.149 442.667 329.822 148.726 424.797C70.239 450.686 66.5602 453.248 0.148438 471.897" stroke="#528491" stroke-opacity="0.25" stroke-width="2" stroke-linecap="round" stroke-linejoin="round"/>
<path d="M3241.85 471.903C3053.62 429.431 2993.09 439.467 2877.16 415.125C2664.36 365.11 2557.58 164.314 2309.86 234.272C2207.19 267.072 2153.16 313.604 2066.73 337.247C2019.23 347.488 2007.52 343.28 1958.69 340.477C1773.92 339.772 1638.36 609.765 1404.89 503.733C1253.16 425.458 1219.96 299.038 1067.21 236.858C940.251 192.734 836.488 247.488 716.024 304.186C428.063 438.428 444.039 334.531 162.23 421.01C89.0357 444.158 75.699 450.877 0.142578 471.897" stroke="#528491" stroke-opacity="0.25" stroke-width="2" stroke-linecap="round" stroke-linejoin="round"/>
<path d="M3241.85 471.903C3040.17 427.847 2981.79 440.785 2863.67 414.011C2718.45 377.195 2677.87 304.137 2525.97 248.213C2271.55 163.522 2187.94 367.338 1972.19 346.522C1774.95 332.328 1642.73 616.472 1404.89 515.05C1257.44 443.013 1225.93 325.416 1080.72 256.721C877.734 172.816 736.508 346.776 513.425 380.196C399.459 393.778 344.832 369.8 175.746 418.009C97.4811 441.28 84.064 448.99 0.154297 471.903" stroke="#528491" stroke-opacity="0.25" stroke-width="2" stroke-linecap="round" stroke-linejoin="round"/>
<path d="M3241.85 471.903C3037.85 428.689 2982.8 442.487 2863.67 416.796C2717.54 381.402 2678.98 309.916 2525.97 256.003C2271.28 175.148 2187.99 376.793 1972.19 353.248C1773.29 336.535 1642.88 621.398 1404.89 525.427C1257.21 456.694 1226 339.53 1080.72 270.333C877.994 185.729 736.563 356.324 513.425 386.445C397.165 398.629 344.659 373.167 175.746 419.438C100.22 441.095 82.9325 449.869 0.154297 471.891" stroke="#528491" stroke-opacity="0.25" stroke-width="2" stroke-linecap="round" stroke-linejoin="round"/>
<path d="M3241.85 471.903C3040.14 430.502 2980.89 443.588 2863.67 419.58C2667.72 374.33 2557.15 191.224 2309.86 262.692C2149.98 314.291 2121.15 378.098 1972.19 359.987C1774.75 340.991 1641.5 625.71 1404.89 535.822C1257.28 470.548 1225.99 353.638 1080.72 283.959C878.216 198.674 736.872 365.859 513.425 392.713C396.065 403.307 343.893 376.7 175.746 420.886C100.424 441.683 83.2725 450.376 0.154297 471.903" stroke="#528491" stroke-opacity="0.25" stroke-width="2" stroke-linecap="round" stroke-linejoin="round"/>
<path d="M3241.85 471.903C3043.1 432.438 2995.68 445.141 2877.16 424.982C2670.68 384.972 2567.04 205.901 2323.38 268.613C2222.79 297.875 2165.1 341.77 2080.26 365.054C2035.01 374.992 2017.84 372.845 1972.19 366.725C1768.74 344.728 1635.23 642.757 1391.39 540.549C1242.26 468.797 1210.24 344.375 1053.71 286.873C930.815 248.695 838.608 293.772 702.526 347.89C425.44 456.081 427.79 352.345 148.732 429.66C81.1332 449.021 68.3467 454.726 0.154297 471.909" stroke="#528491" stroke-opacity="0.25" stroke-width="2" stroke-linecap="round" stroke-linejoin="round"/>
<path d="M3241.85 471.903C2966.82 419.104 2892 458.569 2742.09 382.473C2580.74 295.746 2479.39 227.403 2296.37 286.768C2193.48 322.972 2136.9 365.704 2053.22 377.999C1961.29 385.659 1948.67 345.173 1837.11 400.726C1681.65 485.021 1560.54 628.761 1377.88 545.054C1212.89 459.2 1159.39 269.331 932.151 286.941C766.557 306.383 658.905 409.309 459.404 406.407C375.364 403.746 326.673 395.919 229.779 412.155C141.405 428.757 102.52 446.818 0.154297 471.903" stroke="#528491" stroke-opacity="0.25" stroke-width="2" stroke-linecap="round" stroke-linejoin="round"/>
<path d="M3241.85 471.903C2965.69 421.387 2891.23 461.168 2742.09 388.122C2580.62 304.254 2479.89 238.77 2296.37 297.918C2192.53 334.141 2136.84 375.518 2053.22 386.891C1961.95 393.511 1948.24 353.31 1837.11 407.36C1682.62 489.377 1560.3 633.439 1377.88 553.055C1211.68 469.552 1160.23 281.768 932.151 298.073C766.712 316.382 658.54 416.988 459.404 411.722C375.871 408.096 326.574 399.551 229.779 414.55C142.413 429.87 101.345 448.006 0.154297 471.897" stroke="#528491" stroke-opacity="0.25" stroke-width="2" stroke-linecap="round" stroke-linejoin="round"/>
<path d="M3241.85 471.903C3027.31 434.517 2970.32 451.818 2850.15 430.6C2667.16 393.14 2553.42 227.948 2296.37 309.854C2198.42 343.565 2146.01 380.041 2066.74 394.73C2019.36 400.726 2007.61 395.312 1958.7 388.648C1768.92 373.179 1626.76 650.981 1391.39 565.04C1241.9 501.319 1210.57 379.775 1053.71 322.18C926.283 282.375 830.663 329.519 689.016 378.612C424.606 467.541 416.58 365.834 135.223 437.295C69.46 454.534 62.7823 457.746 0.148438 471.909" stroke="#528491" stroke-opacity="0.25" stroke-width="2" stroke-linecap="round" stroke-linejoin="round"/>
<path d="M3241.85 471.903C3027.2 436.367 2970.21 454.2 2850.15 435.006C2667.17 400.745 2555.05 240.268 2296.37 321.778C2198.64 354.938 2145.81 390.535 2066.74 404.402C2019.24 409.952 2007.17 404.427 1958.7 397.465C1768.73 380.474 1626.26 653.635 1391.39 571.042C1241.52 509.314 1210.76 389.508 1053.71 332.458C925.869 292.894 829.012 339.815 689.016 386.55C419.715 473.685 420.278 367.362 121.718 442.116C56.5805 458.816 52.9572 460.481 0.154297 471.897" stroke="#528491" stroke-opacity="0.25" stroke-width="2" stroke-linecap="round" stroke-linejoin="round"/>
<path d="M3241.85 471.903C3027.86 438.329 2987.58 456.112 2863.67 441.348C2669.14 413.566 2566.3 256.485 2309.86 329.506C2142.64 381.563 2116.51 433.657 1972.19 408.331C1773.39 378.37 1638.98 646.829 1404.89 581.629C1252.1 529.962 1220.17 410.794 1067.21 347.611C938.779 301.47 840.383 344.796 702.52 390.17C419.987 480.882 423.005 373.928 135.223 440.185C67.432 456.372 62.5783 459.027 0.148438 471.897" stroke="#528491" stroke-opacity="0.25" stroke-width="2" stroke-linecap="round" stroke-linejoin="round"/>
<path d="M3241.85 471.903C2962.71 430.526 2891.27 474.972 2742.09 413.943C2575.77 341.114 2480.21 289.064 2296.37 345.644C2188.97 381.093 2136.38 416.944 2053.22 425.075C1962.16 428.416 1947.8 389.49 1837.11 436.887C1678.52 511.696 1551.97 654.854 1364.37 571.946C1206.32 492.867 1150.5 318.826 918.641 340.366C756.633 360.834 651.776 445.581 459.397 432.649C372.118 425.285 320.008 413.584 216.269 426.659C133.621 438.682 94.8904 453.322 0.154297 471.909" stroke="#528491" stroke-opacity="0.25" stroke-width="2" stroke-linecap="round" stroke-linejoin="round"/>
<path d="M3241.85 471.903C2962.67 433.051 2891.32 478.772 2742.09 421.22C2574.12 351.615 2479.72 303.073 2296.37 358.26C2191.57 391.989 2135.51 427.482 2053.22 434.808C1961.94 437.463 1947.97 399.186 1837.11 444.424C1678.08 516.102 1551.74 655.127 1364.37 574.6C1205.31 497.168 1150.92 327.347 918.641 348.719C756.695 368.916 651.485 451.589 459.397 437.327C372.681 429.4 320.44 417.266 216.269 429.202C132.322 440.439 97.784 453.786 0.154297 471.909" stroke="#528491" stroke-opacity="0.25" stroke-width="2" stroke-linecap="round" stroke-linejoin="round"/>
<path d="M3241.84 471.903C3013.46 442.227 2982.16 465.208 2850.15 453.922C2668.6 433.769 2561.56 293.723 2296.37 371.248C2191.16 404.092 2135.3 438.02 2053.22 444.64C2003.12 445.754 1994.64 438.069 1945.18 432.259C1760.85 422.662 1611.45 665.893 1377.88 580.899C1231.23 519.4 1199.37 408.876 1040.2 363.656C919.357 335.23 832.307 373.884 689.022 415.373C421.285 489.977 417.736 387.763 121.724 447.586C56.2215 461.236 54.8427 462.368 0.160156 471.909" stroke="#528491" stroke-opacity="0.25" stroke-width="2" stroke-linecap="round" stroke-linejoin="round"/>
<path d="M3241.84 471.903C3019.6 445.086 2981.08 467.59 2850.15 459.101C2669.89 442.976 2562.94 308.617 2296.37 384.236C2191.15 416.066 2135.11 448.557 2053.22 454.479C2003.25 455.24 1994.73 447.747 1945.18 441.658C1760.64 430.563 1611.16 664.266 1377.88 581.394C1231.31 521.448 1199.02 413.714 1040.2 370.37C917.676 342.754 827.354 382.695 689.022 421.505C422.738 493.362 416.87 393.091 121.724 449.052C55.8258 461.941 55.1951 462.906 0.160156 471.903" stroke="#528491" stroke-opacity="0.25" stroke-width="2" stroke-linecap="round" stroke-linejoin="round"/>
<path d="M3241.84 471.903C2960.21 440.538 2891.81 490.887 2742.08 444.387C2572.45 386.971 2481.46 346.299 2296.37 397.23C2191.87 427.828 2134.6 459.126 2053.22 464.317C1961.97 465.078 1948.19 429.666 1837.11 467.306C1682.71 525.668 1558.64 644.564 1377.88 581.889C1206.2 513.491 1163.04 354.906 932.15 369.547C766.099 385.387 657.056 468.308 459.403 450.469C373.014 441.243 320.514 428.435 216.275 437.017C133.67 445.308 96.7326 457.201 0.160156 471.909" stroke="#528491" stroke-opacity="0.25" stroke-width="2" stroke-linecap="round" stroke-linejoin="round"/>
<path d="M3241.84 471.903C2957.1 442.821 2893.82 495.429 2742.08 452.109C2571.01 398.53 2481.84 360.766 2296.37 410.218C2189.29 440.507 2134.65 469.626 2053.22 474.149C1962.12 474.267 1948.16 439.833 1837.11 474.929C1682.74 529.542 1558.48 643.432 1377.88 582.378C1209.01 516.857 1162.13 361.812 932.15 376.898C765.716 392.949 657 473.753 459.403 454.844C372.922 445.16 320.595 432.16 216.275 439.616C134.165 446.942 96.7388 458.253 0.160156 471.903" stroke="#528491" stroke-opacity="0.25" stroke-width="2" stroke-linecap="round" stroke-linejoin="round"/>
<path d="M3241.84 471.903C2967.97 446.28 2898.05 495.416 2755.6 463.395C2628.31 430.452 2515.6 370.772 2309.86 419.704C2199.19 447.994 2138.54 479.458 2053.22 483.486C1962.25 483.035 1948.36 449.918 1837.11 481.958C1682.97 531.936 1558.45 639.181 1377.88 579.352C1208.51 515.18 1161.76 366.261 932.15 382.367C765.537 398.994 656.87 477.621 459.403 458.377C373.342 448.6 320.681 435.6 216.275 442.128C134.597 448.625 97.0356 459.243 0.160156 471.909" stroke="#528491" stroke-opacity="0.25" stroke-width="2" stroke-linecap="round" stroke-linejoin="round"/>
<path d="M3241.84 471.903C2956.65 447.561 2894.44 502.953 2742.08 467.72C2574.41 424.37 2485.97 389.873 2296.37 436.058C2190.29 463.37 2133.96 489.458 2053.22 492.583C1962.57 491.568 1948.48 459.973 1837.11 488.703C1682.76 533.805 1558.38 633.383 1377.88 574.637C1207.94 511.696 1161.34 369.571 932.15 386.928C764.912 404.402 656.759 480.789 459.403 461.496C372.408 451.614 320.626 438.935 216.275 444.585C134.134 450.37 99.0265 460.011 0.160156 471.903" stroke="#528491" stroke-opacity="0.25" stroke-width="2" stroke-linecap="round" stroke-linejoin="round"/>
<path d="M3241.85 471.903C3049.49 456.855 3018.32 472.788 2877.16 483.326C2723.96 492.552 2709.75 453.761 2539.49 432.314C2274.14 403.87 2173.87 530.89 1972.18 491.704C1771.14 455.376 1635.67 632.331 1404.89 577.979C1248.23 534.498 1216.58 444.102 1067.21 401.209C944.585 371.242 852.971 404.092 716.024 439.752C433.868 511.133 427.982 421.765 148.726 452.988C83.718 460.827 71.9579 464.008 0.148438 471.903" stroke="#528491" stroke-opacity="0.25" stroke-width="2" stroke-linecap="round" stroke-linejoin="round"/>
<path d="M3241.84 471.903C2965.43 452.554 2900.41 506.499 2755.6 485.751C2627.46 463.148 2516.62 413.566 2296.37 461.873C2188.5 486.772 2133.39 509.023 2053.22 510.774C1963.26 508.658 1948.88 480.083 1837.11 502.192C1682.72 537.369 1558.33 621.837 1377.88 565.195C1205.94 504.463 1160.33 376.161 932.15 396.048C764.733 415.045 656.382 487.106 459.403 467.739C191.747 437.419 263.204 445.742 0.160156 471.909" stroke="#528491" stroke-opacity="0.25" stroke-width="2" stroke-linecap="round" stroke-linejoin="round"/>
<path d="M3241.85 471.903C3043.05 459.602 3001.82 479.477 2863.67 493.684C2670.18 510.477 2588.57 414.166 2296.36 474.781C2188.8 498.17 2132.94 518.8 2053.22 519.864C2005.03 518.441 1995.59 512.841 1945.18 505.069C1757.4 483.592 1609.55 631.793 1377.88 560.474C1227.72 508.72 1195.14 428.206 1040.2 402.057C911.994 385.257 819.008 425.786 675.506 457.436C420.475 510.434 450.055 422.953 54.1814 466.706C34.1732 468.797 30.2099 469.224 0.154297 471.903" stroke="#528491" stroke-opacity="0.25" stroke-width="2" stroke-linecap="round" stroke-linejoin="round"/>
<path d="M3241.84 471.903C2973.65 457.121 2910.36 508.819 2769.12 501.078C2656.17 490.924 2538.14 442.202 2309.86 484.248C2196.04 506.455 2137.03 527.698 2053.22 528.149C1964.32 525.031 1949.46 499.704 1837.11 514.846C1682.2 539.671 1558.38 607.847 1377.88 553.259C1204.14 494.903 1158.65 381.192 932.15 403.591C764.881 424.116 655.399 491.691 459.403 472.937C194.164 443.786 266.518 450.605 0.160156 471.909" stroke="#528491" stroke-opacity="0.25" stroke-width="2" stroke-linecap="round" stroke-linejoin="round"/>
<path d="M3241.85 471.903C3046.04 462.294 3012.69 480.455 2863.67 501.579C2671.2 526.157 2600.02 443.062 2296.36 498.64C2181.72 520.495 2122.52 538.891 2039.73 535.543C1991.98 531.707 1980.8 525.761 1931.66 519.449C1744.6 502.192 1596.44 616.522 1364.37 540.543C1219.36 488.721 1181.32 418.708 1026.69 403.616C897.662 395.306 804.447 436.033 661.997 464.28C427.963 507.414 443.421 433.595 54.1756 467.751C33.9633 469.428 29.7465 469.787 0.148438 471.897" stroke="#528491" stroke-opacity="0.25" stroke-width="2" stroke-linecap="round" stroke-linejoin="round"/>
<path d="M3241.85 471.903C3049.02 463.599 3014.73 481.061 2863.67 505.385C2722.04 526.318 2711.34 497.619 2525.97 491.698C2301.94 487.255 2183.17 549.973 2039.73 543.42C1993.41 539.59 1979.99 533.817 1931.66 527.277C1809 514.536 1721.97 549.466 1580.48 559.162C1290.91 573.82 1241.09 422.253 1026.69 404.946C817.481 394.662 702.279 502.996 432.378 473.37C218.823 448.254 212.207 458.358 0.148438 471.909" stroke="#528491" stroke-opacity="0.25" stroke-width="2" stroke-linecap="round" stroke-linejoin="round"/>
<path d="M3241.85 471.903C3067.27 465.45 3033.84 477.188 2877.16 506.752C2682.22 541.892 2618.72 475.276 2323.38 517.964C2115.65 549.521 2102.74 565.226 1958.69 539.238C1821.13 516.504 1730.67 548.94 1580.48 553.946C1297.32 558.846 1237.12 425.749 1040.2 407.112C833.278 393.901 703.719 501.091 445.888 476.538C213.011 452.208 244.297 458.445 0.154297 471.897" stroke="#528491" stroke-opacity="0.25" stroke-width="2" stroke-linecap="round" stroke-linejoin="round"/>
<path d="M3241.85 471.903C3057.38 466.192 3029.38 479.954 2863.67 512.99C2680 547.542 2623.79 485.968 2296.36 533.922C1996.4 579.049 2048.51 554.701 1904.65 539.788C1771.83 529.059 1675.17 556.043 1526.45 546.638C1250.37 524.393 1217.92 400.034 986.165 407.892C850.733 415.781 753.202 459.169 607.969 477.454C504.441 488.728 456.93 478.636 351.337 468.438C220.931 456.805 166.453 464.051 0.154297 471.897" stroke="#528491" stroke-opacity="0.25" stroke-width="2" stroke-linecap="round" stroke-linejoin="round"/>
<path d="M3241.85 471.903C3073.34 467.393 3037.14 477.287 2877.16 512.736C2682.13 554.676 2644.34 497.904 2309.86 542.437C2003.97 584.408 2053.72 564.44 1904.65 546.669C1770.13 533.075 1674.79 552.343 1526.45 538.934C1240.9 508.887 1211.86 393.821 972.656 409.717C838.59 421.523 737.479 463.68 594.46 479.044C493.25 488.165 449.381 477.986 337.827 468.735C218.032 459.701 159.621 465.462 0.148438 471.91" stroke="#528491" stroke-opacity="0.25" stroke-width="2" stroke-linecap="round" stroke-linejoin="round"/>
<path d="M3241.85 471.903C3064.47 467.788 3034.31 478.71 2863.67 517.84C2668.01 560.876 2709.22 500.298 2228.83 562.942C2035.11 587.173 2018.03 568.579 1904.65 553.333C1767.66 536.731 1673.86 548.278 1526.45 530.89C1235.66 492.991 1207.05 393.06 972.656 410.398C841.774 422.693 747.007 460.258 607.963 477.212C505.968 488.065 459.218 479.749 351.331 470.981C230.194 461.83 175.276 465.901 0.148438 471.916" stroke="#528491" stroke-opacity="0.25" stroke-width="2" stroke-linecap="round" stroke-linejoin="round"/>
<path d="M3241.85 471.903C3066.11 468.444 3031.17 479.248 2863.67 520.043C2722.17 553.321 2725.95 531.664 2498.96 544.379C2375.73 552.021 2305.58 563.895 2201.81 574.953C2025.04 592.656 2008.97 572.496 1864.14 554.645C1716.21 537.684 1614.92 541.743 1458.92 510.954C1196.33 456.236 1162.87 378.407 905.125 419.97C766.094 444.083 671.302 478.802 526.929 482.063C342.595 483.035 465.315 459.695 0.148438 471.909" stroke="#528491" stroke-opacity="0.25" stroke-width="2" stroke-linecap="round" stroke-linejoin="round"/>
<path d="M3241.85 471.903C3078.88 469.273 3034.24 477.676 2877.16 518.769C2729.02 556.959 2746.33 537.759 2512.48 552.906C2373.5 562.546 2294.95 575.664 2188.3 584.797C2024.35 597.587 2003.19 579.928 1837.11 556.427C1681.26 535.042 1572.44 529.801 1404.89 489.111C1164.11 428.856 1125.62 374.794 837.594 433.682C438.883 517.055 520.906 467.194 189.25 468.704C155.787 469.001 167.628 468.859 0.148438 471.903" stroke="#528491" stroke-opacity="0.25" stroke-width="2" stroke-linecap="round" stroke-linejoin="round"/>
<path d="M3241.85 471.903C3071 469.75 3029.01 479.242 2863.67 524.449C2726.98 560.764 2739.97 542.672 2485.47 564.465C2277.07 582.922 2162.99 605.142 2026.21 592.668C2003.25 590.113 1591.88 523.484 1431.9 485.968C1206.57 432.067 1162.86 402.484 1013.19 409.179C876.899 417.742 779.449 452.362 634.989 472.732C450.642 496.512 504.904 465.505 0.154297 471.897" stroke="#528491" stroke-opacity="0.25" stroke-width="2" stroke-linecap="round" stroke-linejoin="round"/>
<path d="M3241.85 471.903C2953.36 469.094 2915.05 526.367 2755.6 549.163C2706.27 554.942 2688.29 553.995 2566.5 564.075C2048.35 609.666 2169.56 643.896 1526.46 499.377C1187.22 421.467 1132.99 381.866 878.117 426.758C396.689 514.784 712.938 465.524 0.154297 471.903" stroke="#528491" stroke-opacity="0.25" stroke-width="2" stroke-linecap="round" stroke-linejoin="round"/>
<path d="M3241.85 471.903C3069.07 470.424 3025.9 478.765 2863.67 525.587C2749.26 558.098 2756.21 550.041 2566.5 569.124C2275.06 599.685 2139.4 628.334 1945.18 594.184C1777.36 562.813 1460.32 467.132 1215.79 421.3C942.118 373.191 783.579 471.773 513.419 478.747C398.093 480.25 398.211 469.942 0.148438 471.897" stroke="#528491" stroke-opacity="0.25" stroke-width="2" stroke-linecap="round" stroke-linejoin="round"/>
<path d="M3241.85 471.903C2937.92 469.657 2913.82 528.743 2742.09 554.428C1854.63 669.804 2044.37 612.104 1418.4 456.781C928.546 337.748 841.644 477.621 472.901 477.509C391.935 476.823 296.939 471.612 0.154297 471.897" stroke="#528491" stroke-opacity="0.25" stroke-width="2" stroke-linecap="round" stroke-linejoin="round"/>
<path d="M3241.85 471.903C2939.73 470.01 2929.59 521.12 2755.6 554.032C2755.35 554.076 2381.1 606.157 2282.85 615.476C1972.29 643.079 1873.28 592.872 1634.51 512.364C1139.65 348.837 1011.87 410.998 675.506 460.456C488.093 486.809 427.487 472.534 0.154297 471.903" stroke="#528491" stroke-opacity="0.25" stroke-width="2" stroke-linecap="round" stroke-linejoin="round"/>
<path d="M3241.85 471.903C2934.41 470.573 2913.3 526.961 2742.09 558.116C2156.43 654.13 2020.55 655.801 1756.08 555.288C1525.48 466.501 1383.81 409.117 1134.76 405.608C979.951 405.089 871.594 428.917 716.036 452.932C473.767 489.371 300.828 473.493 0.154297 471.909" stroke="#528491" stroke-opacity="0.25" stroke-width="2" stroke-linecap="round" stroke-linejoin="round"/>
<path d="M3241.85 471.903C2933.5 470.455 2916.02 524.399 2742.09 557.887C1938.14 698.663 1953.87 631.539 1593.99 490.571C1198.13 338.379 929.016 428.979 621.479 463.055C417.836 484.303 46.4777 472.243 0.148438 471.897" stroke="#528491" stroke-opacity="0.25" stroke-width="2" stroke-linecap="round" stroke-linejoin="round"/>
<path d="M3241.85 471.903C2920.14 470.158 2916.86 524.765 2728.59 559.558C2340.15 626.88 2077.39 704.182 1769.59 566.637C1493.51 441.831 1417.42 402.057 1161.76 405.25C818.464 411.443 796.156 470.907 229.767 475.894C100.091 476.501 91.3049 472.757 0.142578 471.903" stroke="#528491" stroke-opacity="0.25" stroke-width="2" stroke-linecap="round" stroke-linejoin="round"/>
<path d="M3241.85 471.903C2916.69 469.967 2920.49 521.535 2728.59 558.859C2434.73 612.846 2090.68 710.048 1823.61 594.976C1591.77 491.493 1480.9 398.536 1215.79 403.4C739.222 415.008 809.752 480.925 0.148438 471.897" stroke="#528491" stroke-opacity="0.25" stroke-width="2" stroke-linecap="round" stroke-linejoin="round"/>
<path d="M3241.85 471.903C2914.44 469.577 2924.9 518.107 2728.59 558.166C2461.39 609.536 2349.11 649.601 2147.77 653.586C1955.84 655.473 1902.24 635.982 1823.61 599.939C1593.31 490.324 1484.64 388.636 1215.79 401.772C610.115 434.48 710.094 481.179 0.154297 471.903" stroke="#528491" stroke-opacity="0.25" stroke-width="2" stroke-linecap="round" stroke-linejoin="round"/>
<path d="M3241.85 471.903C3089.2 471.043 3035.47 467.194 2877.16 515.755C2720.05 565.213 2775.97 544.689 2593.51 586.394C2392.63 633.544 2274.72 665.076 2066.73 658.703C1940.33 653.976 1903.55 651.921 1742.55 561.154C1304.66 312.162 1400.4 402.818 364.841 471.13C150.427 483.796 113.947 473.58 0.148438 471.897" stroke="#528491" stroke-opacity="0.25" stroke-width="2" stroke-linecap="round" stroke-linejoin="round"/>
<path d="M3241.85 471.903C3090.52 470.969 3036.37 465.511 2877.16 513.435C2704.94 566.463 2769.51 543 2607.02 581.883C2396.86 633.222 2284.52 669.612 2066.73 664.823C1939.57 661.166 1902.87 659.557 1742.55 564.731C1398.75 359.529 1356.63 390.245 1121.23 410.311C29.74 499.841 264.002 476.006 0.154297 471.903" stroke="#528491" stroke-opacity="0.25" stroke-width="2" stroke-linecap="round" stroke-linejoin="round"/>
<path d="M3241.85 471.903C3135.9 471.173 3084.65 466.198 2985.23 483.889C2882.23 504.055 2839.81 526.51 2742.09 549.132C2476.51 607.611 2389.4 647.46 2215.31 665.503C1947.9 690.093 1877.77 648.753 1783.09 593.299C1633.69 503.603 1494.15 396.748 1310.34 395.133C1231.77 396.63 1222.14 406.271 1067.21 417.619C943.416 426.251 871.94 427.377 675.506 441.98C66.869 490.101 339.973 477.342 0.154297 471.903" stroke="#528491" stroke-opacity="0.25" stroke-width="2" stroke-linecap="round" stroke-linejoin="round"/>
<path d="M3241.85 471.903C3104.89 470.87 3043.66 461.972 2890.68 504.45C2565.25 597.785 2937.28 490.039 2431.43 626.595C2278.51 667.186 2173.23 682.544 1999.2 675.397C1759.78 661.401 1602.07 392.614 1310.35 394.842C1211.42 398.499 1213.85 415.379 959.164 426.405C435.457 446.992 414.997 469.372 229.779 476.791C119.796 480.263 93.7033 473.45 0.154297 471.909" stroke="#528491" stroke-opacity="0.25" stroke-width="2" stroke-linecap="round" stroke-linejoin="round"/>
<path d="M3241.85 471.903C3112.24 471.025 3049.8 460.871 2904.17 498.343C2847.14 513.744 2822.53 522.716 2769.12 536.738C2410.13 625.642 2396.2 646.167 2242.32 670.466C2155.71 683.076 2001.03 692.085 1918.16 670.255C1797.44 632.251 1706.2 538.544 1553.46 457.177C1332.24 344.468 1282.89 415.886 999.67 427.234C839.944 432.927 732.137 428.701 513.413 449.306C385.653 461.7 334.396 471.835 229.767 476.686C120.334 480.714 95.3857 473.506 0.142578 471.897" stroke="#528491" stroke-opacity="0.25" stroke-width="2" stroke-linecap="round" stroke-linejoin="round"/>
<path d="M3241.85 471.903C3027.5 470.363 3043.76 441.033 2431.42 628.062C2277.77 674.333 2174.42 692.983 1999.2 688.819C1819.76 681.121 1730.95 544.807 1526.45 442.871C1316.26 343.781 1280.68 424.469 972.656 430.477C823.67 432.754 715.17 427.191 526.922 444.981C403.652 457.17 357.724 467.739 256.781 475.04C135.47 482.645 98.7922 473.611 0.148438 471.903" stroke="#528491" stroke-opacity="0.25" stroke-width="2" stroke-linecap="round" stroke-linejoin="round"/>
<path d="M3241.85 471.903C3109.52 470.895 3046.58 457.529 2890.68 496.716C2591.54 575.145 2651.99 554.806 2525.97 595.935C2418.65 631.347 2343.19 657.775 2242.32 677.241C2156 692.772 2001.91 706.274 1918.16 683.924C1796.3 644.595 1705.87 543.854 1553.46 458.723C1327.28 338.243 1278.18 427.377 1013.18 433.75C869.702 436.108 764.907 425.378 594.46 436.336C472.747 444.962 418.033 456.255 324.318 467.776C161.809 486.661 111.999 473.803 0.148438 471.903" stroke="#528491" stroke-opacity="0.25" stroke-width="2" stroke-linecap="round" stroke-linejoin="round"/>
<path d="M3241.85 471.903C3114.65 470.876 3051.17 457.337 2904.17 490.596C2434.39 603.224 2439.2 637.69 2242.32 679.809C2155.32 697.252 2002.96 713.241 1918.16 690.57C1795.8 650.826 1705.64 547.48 1553.46 461.291C1325.73 338.485 1274.15 435.557 1013.18 438.348C874.018 438.57 769.841 424.71 607.969 432.711C491.117 439.412 431.475 451.583 337.827 464.695C165.402 487.775 111.894 473.766 0.148438 471.897" stroke="#528491" stroke-opacity="0.25" stroke-width="2" stroke-linecap="round" stroke-linejoin="round"/>
<path d="M3241.85 471.903C3113.43 470.808 3050.89 456.415 2904.17 487.867C2451.92 591.041 2471.84 625.518 2255.84 679.203C2168.03 699.82 2018.47 718.816 1931.66 700.829C1747.05 651.389 1594.17 410.682 1350.86 402.36C1229.45 402.985 1210.55 443.471 1013.19 442.951C733.923 439.263 735.611 401.246 351.337 461.242C167.312 489.031 117.007 473.803 0.154297 471.903" stroke="#528491" stroke-opacity="0.25" stroke-width="2" stroke-linecap="round" stroke-linejoin="round"/>
<path d="M3241.85 471.903C3113.69 470.752 3051.15 455.376 2904.17 485.139C2475.58 577.879 2474.71 622.499 2255.84 681.486C2168.78 703.749 2019.99 725.666 1931.66 707.487C1746.5 657.793 1594.64 411.177 1350.86 405.379C1228.17 407.378 1206.92 450.71 1013.19 447.555C732.612 439.77 732.872 395.857 351.337 459.682C167.64 489.414 117.199 473.778 0.154297 471.909" stroke="#528491" stroke-opacity="0.25" stroke-width="2" stroke-linecap="round" stroke-linejoin="round"/>
<path d="M3241.85 471.903C3110.14 470.684 3046.83 453.216 2890.68 485.17C2436.32 583.504 2493.68 618 2242.32 687.507C2154.23 710.618 2005.82 734.069 1918.17 710.506C1735.02 649.898 1582.96 401.989 1337.36 408.764C1219.37 416.697 1192.44 459.775 999.681 451.577C742.635 437.624 701.277 394.044 364.847 455.704C170.379 490.404 123.029 473.815 0.154297 471.903" stroke="#528491" stroke-opacity="0.25" stroke-width="2" stroke-linecap="round" stroke-linejoin="round"/>
<path d="M3241.85 471.903C3115.66 470.715 3051.85 453.662 2904.17 479.879C2501.21 557.009 2485.17 613.354 2255.84 684.914C2167.94 711.082 2022.38 738.066 1931.66 719.646C1746.66 670.02 1596.32 414.401 1350.86 413.677C1225.82 418.485 1201.56 466.409 1013.19 458.061C879.644 450.24 782.039 424.029 634.989 422.068C390.908 421.963 372.118 487.416 40.6778 472.825C26.7351 472.38 25.9189 472.287 0.154297 471.903" stroke="#528491" stroke-opacity="0.25" stroke-width="2" stroke-linecap="round" stroke-linejoin="round"/>
<path d="M3241.85 471.903C3031.45 469.892 3066.54 442.4 2769.12 505.626C2678.89 524.226 2642.96 530.451 2539.49 571.036C2436.7 612.283 2135.19 766.022 1931.65 724.961C1745.14 675.039 1597.31 417.489 1350.86 419.37C1225.11 425.533 1198.79 475.214 1013.18 464.206C878.662 454.138 781.737 424.363 634.983 420.273C394.241 417.025 357.965 489.291 54.1756 473.376C34.9341 472.547 31.1933 472.349 0.148438 471.909" stroke="#528491" stroke-opacity="0.25" stroke-width="2" stroke-linecap="round" stroke-linejoin="round"/>
<path d="M3241.85 471.903C3114.28 470.684 3051.84 452.635 2904.17 474.892C2659.59 515.099 2581.6 549.645 2525.97 572.552C2421.53 616.596 2112.5 778.534 1918.17 726.656C1732.21 665.033 1586.46 411.047 1337.36 425.848C1215.42 437.945 1185.17 485.986 999.681 469.106C869.646 455.289 775.182 424.407 634.989 418.46C406.588 412.359 345.995 488.251 54.1814 473.308C34.7606 472.497 30.9024 472.305 0.154297 471.891" stroke="#528491" stroke-opacity="0.25" stroke-width="2" stroke-linecap="round" stroke-linejoin="round"/>
<path d="M3241.85 471.903C3113.56 470.678 3052.25 452.053 2904.17 472.398C2666.53 508.287 2588.75 541.465 2512.48 574.489C2396.94 625.45 2093.75 790.185 1904.65 727.491C1719.84 654.489 1574.97 405.633 1323.84 433.162C1207.64 450.283 1171.25 496.258 986.166 473.364C855.37 455.227 760.826 421.69 621.473 416.128C395.948 411.066 368.378 486.036 40.666 472.714C26.5193 472.305 26.0308 472.231 0.142578 471.897" stroke="#528491" stroke-opacity="0.25" stroke-width="2" stroke-linecap="round" stroke-linejoin="round"/>
<path d="M3241.85 471.903C3111.19 470.635 3046.98 450.271 2890.68 471.761C2663.75 505.7 2600.97 531.416 2512.48 570.745C2396.62 623.272 2094.49 795.754 1904.65 732.813C1719.14 659.371 1576.14 408.814 1323.84 439.133C1210.2 457.078 1172.2 502.272 999.675 480.956C794.307 451.997 678.845 378.463 418.868 434.208C158.532 491.97 190.436 474.193 0.154297 471.903" stroke="#528491" stroke-opacity="0.25" stroke-width="2" stroke-linecap="round" stroke-linejoin="round"/>
<path d="M3241.85 471.903C3111.48 470.678 3046.72 450.253 2890.68 469.688C2667.08 500.212 2603.51 525.848 2512.48 566.996C2389.93 623.582 2107.02 790.525 1918.17 740.479C1731.13 678.528 1589.22 420.917 1337.36 444.127C1216.47 460.004 1181.89 509.351 1013.19 489.575C802.19 460.499 685.362 373.643 418.88 431.993C157.141 491.481 191.166 474.063 0.154297 471.903" stroke="#528491" stroke-opacity="0.25" stroke-width="2" stroke-linecap="round" stroke-linejoin="round"/>
<path d="M3241.85 471.903C3114.25 470.74 3052.09 451.62 2904.17 466.198C2674.44 491.846 2597.24 524.344 2512.48 563.246C2377.24 626.738 2093.57 801.372 1904.65 738.877C1718.2 665.225 1578.99 416.381 1323.84 452.771C1210.4 473.116 1168.04 520.105 999.675 494.575C781.582 457.102 678.091 369.602 405.364 432.915C164.319 490.869 173.297 473.735 0.154297 471.903" stroke="#528491" stroke-opacity="0.25" stroke-width="2" stroke-linecap="round" stroke-linejoin="round"/>
<path d="M3241.85 471.903C3139.95 471.006 2823.37 418.943 2525.97 553.209C2382.31 620.129 2124.28 787.295 1931.66 749.786C1745.7 700.693 1608.99 446.695 1364.37 454.986C1232.08 464.985 1200.88 521.968 1040.2 507.21C904.747 491.209 806.586 439.251 662.002 415.502C426.634 381.551 348.487 483.326 94.7049 474.799C49.705 472.856 46.7309 472.349 0.154297 471.897" stroke="#528491" stroke-opacity="0.25" stroke-width="2" stroke-linecap="round" stroke-linejoin="round"/>
<path d="M3241.85 471.903C3110.13 470.783 3046.13 450.395 2890.68 463.729C2675.91 484.576 2609.74 509.741 2512.48 555.746C2370.18 624.795 2106.28 798.619 1918.17 749.099C1733.9 688.305 1597.4 440.934 1350.86 462.572C1223.69 478.79 1187.36 533.644 1026.69 512.847C895.59 492.477 800.551 440.513 662.002 415.032C427.357 376.848 349.464 482.453 94.7049 474.644C48.7157 472.776 46.8298 472.318 0.154297 471.903" stroke="#528491" stroke-opacity="0.25" stroke-width="2" stroke-linecap="round" stroke-linejoin="round"/>
<path d="M3241.85 471.903C3124.15 470.938 2810.72 418.033 2539.49 539.256C2380.26 613.081 2127.23 793.316 1931.66 755.522C1745.74 706.664 1610.23 453.254 1364.37 467.788C1231.28 481.092 1197.3 539.572 1040.2 521.98C908.649 503.448 815.125 448.613 675.506 417.309C435.562 368.501 356.581 478.029 108.209 474.861C56.2098 473.401 62.2011 472.411 0.148438 471.897" stroke="#528491" stroke-opacity="0.25" stroke-width="2" stroke-linecap="round" stroke-linejoin="round"/>
<path d="M3241.85 471.903C3109.02 470.888 2798.26 415.521 2525.97 542.331C2371.5 616.831 2109.9 802.449 1918.17 751.976C1733.49 691.126 1599.76 446.435 1350.86 475.034C1221.27 494.909 1178.7 554.224 1013.19 525.074C806.11 483.041 680.762 363.019 432.378 417.947C180.896 477.596 270.148 473.927 0.154297 471.903" stroke="#528491" stroke-opacity="0.25" stroke-width="2" stroke-linecap="round" stroke-linejoin="round"/>
<path d="M3241.84 471.903C3103.18 470.907 2796.84 417.278 2539.49 532.895C2372.67 610.798 2143.79 782.834 1945.18 757.842C1753.9 720.623 1619.19 456.019 1364.37 479.087C1228.04 496.815 1188.44 559.688 1026.69 534.838C890.05 509.753 790.85 443.947 648.498 412.322C415.467 366.329 365.947 483.685 54.1873 472.751C34.4573 472.219 30.4569 472.107 0.160156 471.897" stroke="#528491" stroke-opacity="0.25" stroke-width="2" stroke-linecap="round" stroke-linejoin="round"/>
<path d="M3241.85 471.903C3061.84 470.684 3023.23 440.816 2755.6 469.892C2462.13 503.584 2326.13 701.528 2053.22 752.83C1960.77 767.99 1917.31 760.985 1837.11 713.13C1680.26 613.224 1563.83 463.482 1364.37 484.706C1206 507.718 1159.85 597.971 918.641 511.876C744.546 447.091 634.946 373.111 445.894 410.924C357.013 430.632 301.823 454.064 202.765 468.383C122.269 478.4 102.564 472.535 0.154297 471.903" stroke="#528491" stroke-opacity="0.25" stroke-width="2" stroke-linecap="round" stroke-linejoin="round"/>
<path d="M3241.85 471.903C3070.77 470.845 3014.86 442.574 2769.12 466.037C2454.83 497.557 2332.42 699.115 2053.22 752.459C1961.34 767.78 1917.7 760.787 1837.11 712.895C1678.35 612.234 1564.62 465.846 1364.37 490.318C1205.35 515.848 1156.32 606.708 918.635 517.964C745.43 450.463 634.841 371.279 445.888 408.9C357.353 428.559 302.145 452.61 202.76 467.646C123.073 478.079 103.071 472.479 0.148438 471.903" stroke="#528491" stroke-opacity="0.25" stroke-width="2" stroke-linecap="round" stroke-linejoin="round"/>
<path d="M3241.85 471.903C3066.44 470.901 3005.78 441.887 2755.6 464.893C2459.06 494.544 2317.66 707.332 2039.73 754.365C1959.12 765.886 1914.19 761.282 1823.62 704.133C1665.39 599.239 1552.8 462.795 1350.86 498.3C1197 530.791 1143.18 615.482 905.131 518.546C730.096 444.628 623.73 367.338 432.384 409.878C342.996 431.566 287.213 455.295 189.256 468.766C116.747 477.169 100.313 472.386 0.154297 471.903" stroke="#528491" stroke-opacity="0.25" stroke-width="2" stroke-linecap="round" stroke-linejoin="round"/>
<path d="M3241.84 471.903C3064.62 470.969 2986.91 441.732 2742.08 464.775C2543.34 486.085 2428.94 589.352 2242.32 683.188C1993.98 804.274 1899.53 750.875 1810.1 691.962C1657.57 587.186 1546.41 464.596 1350.87 502.563C1198.9 537.307 1139.6 623.223 905.137 524.721C738.851 452.103 628.465 369.528 445.893 405.157C353.68 425.483 294.156 453.031 189.261 468.098C117.495 476.872 100.634 472.343 0.160156 471.897" stroke="#528491" stroke-opacity="0.25" stroke-width="2" stroke-linecap="round" stroke-linejoin="round"/>
<path d="M3241.85 471.903C3032.84 470.889 2775.29 413.9 2539.49 519.183C2365.6 600.192 2128.86 787.153 1931.66 747.422C1744.64 697.005 1618.72 458.928 1364.37 503.826C1227.92 532.864 1178.29 597.167 1026.69 571.117C892.419 543.099 800.002 467.869 661.997 418.974C427.284 342.241 349.86 477.268 81.1895 473.048C35.1446 472.021 39.4913 472.114 0.142578 471.903" stroke="#528491" stroke-opacity="0.25" stroke-width="2" stroke-linecap="round" stroke-linejoin="round"/>
<path d="M3241.85 471.903C3003.95 470.888 2767.74 411.388 2525.97 523.335C2357.08 604.765 2112.26 792.932 1918.17 740.213C1726.31 675.929 1606.98 443.192 1337.36 514.412C1213.03 551.025 1153.13 609.777 999.681 572.007C865.015 534.164 771.46 454.714 634.989 411.177C414.15 347.686 356.865 478.369 54.1814 472.398C30.6056 472.021 33.4189 472.07 0.154297 471.909" stroke="#528491" stroke-opacity="0.25" stroke-width="2" stroke-linecap="round" stroke-linejoin="round"/>
<path d="M3241.85 471.903C2987.62 470.932 2764.34 411.511 2525.97 521.188C2357.01 602.148 2112.62 789.876 1918.17 736.631C1725.74 671.846 1608.71 442.332 1337.36 518.781C1214.99 556.866 1156.45 612.537 1013.19 582.347C878.216 548.791 786.108 467.343 648.499 416.394C424.018 340.106 344.468 475.269 81.2012 472.794C34.3031 471.984 38.7548 472.058 0.154297 471.897" stroke="#528491" stroke-opacity="0.25" stroke-width="2" stroke-linecap="round" stroke-linejoin="round"/>
<path d="M3241.85 471.903C3054.32 471.272 2943.1 444.906 2742.09 459.293C2545.23 476.414 2428.59 579.829 2242.32 672.062C1988.34 793.916 1892.4 730.981 1810.1 678.12C1651.46 572.317 1547.85 466.242 1350.87 519.115C1198.48 564.78 1125.71 653.363 905.137 549.534C737.645 467.077 627.711 365.29 445.894 398.4C357.687 417.118 304.408 443.799 202.765 463.166C124.816 476.365 97.2399 472.25 0.154297 471.909" stroke="#528491" stroke-opacity="0.25" stroke-width="2" stroke-linecap="round" stroke-linejoin="round"/>
<path d="M3241.85 471.903C2934.18 470.591 2754.32 410.36 2512.48 524.041C2341.7 607.005 2099.14 788.793 1904.65 722.399C1714.57 646.42 1603.58 440.754 1337.35 525.915C1211.44 569.65 1146.81 629.2 999.675 592.643C864.069 553.642 772.165 466.074 634.983 413.615C412.858 336.133 391.582 473.11 0.154297 471.903" stroke="#528491" stroke-opacity="0.25" stroke-width="2" stroke-linecap="round" stroke-linejoin="round"/>
<path d="M3241.85 471.903C3032.58 471.117 2849.92 440.334 2688.06 464.639C2502.64 497.601 2370.73 614.381 2188.3 687.996C1954.54 777.587 1885.71 718.798 1729.07 610.792C1572.35 504.259 1478.52 469.812 1296.84 544.367C1133.36 614.102 1062.3 653.159 851.11 532.889C659.474 421.226 581.71 353.49 378.363 412.644C157.407 479.322 172.462 472.374 0.154297 471.903" stroke="#528491" stroke-opacity="0.25" stroke-width="2" stroke-linecap="round" stroke-linejoin="round"/>
<path d="M3241.85 471.903C3041.26 471.254 2964.4 454.726 2809.62 455.698C2445.1 461.267 2311.14 708.582 1999.2 724.911C1753.57 729.385 1661.35 398.604 1310.34 541.997C1189.95 593.466 1118.22 645.059 972.662 597.705C759.805 520.229 652.734 340.347 405.364 403.474C199.816 460.066 240.451 472.448 0.154297 471.903" stroke="#528491" stroke-opacity="0.25" stroke-width="2" stroke-linecap="round" stroke-linejoin="round"/>
<path d="M3241.85 471.903C3018.34 471.297 2951.34 454.404 2796.13 455.797C2448.6 462.219 2296.12 714.924 1985.71 719.256C1949.88 718.173 1926.64 714.46 1877.64 692.116C1670.74 588.232 1585.42 427.729 1310.34 545.19C1187.29 599.908 1115.3 650.789 972.662 604.381C841.508 556.415 752.664 465.709 621.479 411.685C444.237 345.415 357.316 438.415 162.236 467.244C107.955 473.933 95.8429 472.163 0.148438 471.903" stroke="#528491" stroke-opacity="0.25" stroke-width="2" stroke-linecap="round" stroke-linejoin="round"/>
<path d="M3241.85 471.903C2970.33 471.303 2835.57 442.159 2688.06 463.012C2507.49 493.412 2381.29 599.332 2201.82 670.119C1956.84 761.715 1880.82 694.765 1742.56 603.002C1582.99 498.102 1490.83 467.993 1310.35 548.371C1214.48 592.65 1161.68 628.037 1067.22 628.718C981.745 625.067 918.517 591.183 851.104 549.911C660.636 430.099 583.206 348.249 378.357 408.139C156.993 475.839 177.279 472.287 0.154297 471.903" stroke="#528491" stroke-opacity="0.25" stroke-width="2" stroke-linecap="round" stroke-linejoin="round"/>
<path d="M3241.85 471.903C2949.9 471.105 2829.98 443.31 2688.06 463.018C2507.58 492.923 2381.18 597.129 2201.82 665.318C1957.65 753.214 1882.54 687.649 1742.56 595.818C1580.2 490.732 1488.96 467.399 1310.35 550.561C1213.42 597.179 1160.11 632.69 1067.22 634.559C981.54 631.929 918.529 597.866 851.104 555.759C658.719 432.03 582.693 347.011 378.357 406.753C166.836 471.625 188.687 472.46 0.154297 471.903" stroke="#528491" stroke-opacity="0.25" stroke-width="2" stroke-linecap="round" stroke-linejoin="round"/>
<path d="M3241.84 471.903C2915.64 471.47 2818.18 441.819 2674.57 465.239C2495.72 498.962 2366.67 603.503 2188.3 665.175C1955.06 741.24 1890.31 683.899 1742.56 588.597C1576.35 482.725 1485.93 467.423 1310.34 552.733C1214.71 600.533 1165.74 632.739 1080.72 639.948C822.327 648.555 697.635 325.039 405.37 397.731C311.728 423.274 251.376 453.427 148.738 467.85C103.75 473.029 98.6988 472.114 0.160156 471.897" stroke="#528491" stroke-opacity="0.25" stroke-width="2" stroke-linecap="round" stroke-linejoin="round"/>
<path d="M3241.85 471.903C2904.64 471.21 2822.61 444.993 2688.06 463.061C2502.19 492.824 2373.92 598.596 2188.3 660.163C1947.64 735.257 1888.53 672.867 1729.07 572.917C1560.53 469.985 1470.8 471.656 1296.84 561.909C1113.1 658.839 1035.3 687.092 851.11 567.466C672.285 447.474 586.941 346.999 391.867 400.039C180.766 461.78 219.886 472.225 0.154297 471.903" stroke="#528491" stroke-opacity="0.25" stroke-width="2" stroke-linecap="round" stroke-linejoin="round"/>
<path d="M3241.85 471.903C2751.08 470.981 2734.16 412.65 2458.46 538.532C2293.59 614.944 2163.64 691.498 1972.19 683.887C1815.39 666.289 1704.16 494.092 1512.95 492.069C1288.27 500.608 1182.87 724.057 945.654 626.836C808.707 564.582 716.87 452.505 580.962 399.804C500.1 372.399 449.109 380.697 364.847 406.778C149.128 476.296 161.073 472.021 0.154297 471.903" stroke="#528491" stroke-opacity="0.25" stroke-width="2" stroke-linecap="round" stroke-linejoin="round"/>
<path d="M3241.85 471.903C3101.1 471.903 3085.44 475.263 2958.22 466.817C2844.69 458.841 2771.68 452.282 2688.06 463.104C2508.22 490.949 2381.11 588.102 2201.81 646.049C1949.78 722.547 1878.47 650.956 1742.56 566.934C1570.21 462.417 1480.55 466.173 1310.34 559.236C1115.61 667.7 1037.58 704.925 851.097 579.16C662.992 447.722 585.222 340.706 378.351 401.215C164.536 467.578 197.85 471.903 0.154297 471.903" stroke="#528491" stroke-opacity="0.25" stroke-width="2" stroke-linecap="round" stroke-linejoin="round"/>
</g>
<defs>
<clipPath id="clip0_17569_41911">
<rect width="3242" height="816" fill="white"/>
</clipPath>
</defs>
</svg>
