<svg width="3244" height="369" viewBox="0 0 3244 369" fill="none" xmlns="http://www.w3.org/2000/svg">
<path d="M3242.7 79.0833C2938.78 76.8371 2914.68 135.923 2742.94 161.608C1855.48 276.984 2045.23 219.284 1419.26 63.9606C929.403 -55.0718 842.501 84.8007 473.759 84.6893C392.792 84.0025 297.796 78.7924 1.01172 79.0771" stroke="#528491" stroke-opacity="0.25" stroke-width="2" stroke-linecap="round" stroke-linejoin="round"/>
<path d="M3242.7 79.0834C2940.59 77.19 2930.45 128.3 2756.46 161.212C2756.2 161.256 2381.96 213.337 2283.71 222.656C1973.15 250.259 1874.14 200.053 1635.37 119.545C1140.5 -43.9833 1012.73 18.1781 676.364 67.6362C488.95 93.9896 428.344 79.7146 1.01172 79.0834" stroke="#528491" stroke-opacity="0.25" stroke-width="2" stroke-linecap="round" stroke-linejoin="round"/>
<path d="M3242.7 79.0834C2935.27 77.7531 2914.16 134.141 2742.94 165.296C2157.29 261.311 2021.4 262.981 1756.94 162.469C1526.34 73.6815 1384.67 16.297 1135.61 12.7886C980.809 12.2689 872.452 36.0976 716.893 60.112C474.624 96.5512 301.685 80.6736 1.01172 79.0896" stroke="#528491" stroke-opacity="0.25" stroke-width="2" stroke-linecap="round" stroke-linejoin="round"/>
<path d="M3242.7 79.0831C2934.36 77.6352 2916.88 131.579 2742.94 165.067C1939 305.843 1954.73 238.719 1594.85 97.7513C1198.98 -54.4408 929.874 36.1591 622.337 70.2347C418.693 91.4832 47.3352 79.4234 1.00586 79.0769" stroke="#528491" stroke-opacity="0.25" stroke-width="2" stroke-linecap="round" stroke-linejoin="round"/>
<path d="M3242.7 79.0834C2920.99 77.3385 2917.72 131.945 2729.45 166.738C2341 234.06 2078.25 311.363 1770.45 173.817C1494.37 49.0113 1418.28 9.23691 1162.61 12.4297C819.321 18.6236 797.013 78.0872 230.625 83.0745C100.948 83.6808 92.1623 79.9373 1 79.0834" stroke="#528491" stroke-opacity="0.25" stroke-width="2" stroke-linecap="round" stroke-linejoin="round"/>
<path d="M3242.7 79.0835C2917.54 77.1467 2921.35 128.715 2729.45 166.039C2435.59 220.026 2091.54 317.229 1824.47 202.156C1592.62 98.6736 1481.76 5.71618 1216.65 10.5797C740.08 22.1878 810.609 88.1051 1.00586 79.0773" stroke="#528491" stroke-opacity="0.25" stroke-width="2" stroke-linecap="round" stroke-linejoin="round"/>
<path d="M3242.7 79.0834C2915.3 76.7568 2925.76 125.287 2729.44 165.346C2462.25 216.716 2349.97 256.781 2148.63 260.766C1956.7 262.653 1903.1 243.162 1824.47 207.119C1594.16 97.5041 1485.5 -4.18424 1216.65 8.9522C610.972 41.6603 710.951 88.3587 1.01172 79.0834" stroke="#528491" stroke-opacity="0.25" stroke-width="2" stroke-linecap="round" stroke-linejoin="round"/>
<path d="M3242.7 79.0834C3090.06 78.2233 3036.33 74.3745 2878.02 122.935C2720.91 172.394 2776.83 151.869 2594.36 193.574C2393.48 240.724 2275.58 272.256 2067.59 265.883C1941.19 261.156 1904.41 259.101 1743.41 168.334C1305.52 -80.6577 1401.26 9.99794 365.698 78.3099C151.284 90.9761 114.804 80.7602 1.00586 79.0772" stroke="#528491" stroke-opacity="0.25" stroke-width="2" stroke-linecap="round" stroke-linejoin="round"/>
<path d="M3242.7 79.0838C3091.38 78.1494 3037.22 72.6919 2878.02 120.615C2705.8 173.644 2770.37 150.18 2607.88 189.064C2397.71 240.403 2285.38 276.792 2067.59 272.003C1940.43 268.346 1903.73 266.737 1743.41 171.911C1399.6 -33.2907 1357.48 -2.57504 1122.09 17.4916C30.5974 107.021 264.859 83.1862 1.01172 79.0838" stroke="#528491" stroke-opacity="0.25" stroke-width="2" stroke-linecap="round" stroke-linejoin="round"/>
<path d="M3242.7 79.0835C3136.76 78.3534 3085.51 73.3785 2986.09 91.069C2883.09 111.235 2840.66 133.69 2742.94 156.312C2477.37 214.792 2390.26 254.64 2216.17 272.684C1948.75 297.273 1878.63 255.934 1783.94 200.48C1634.54 110.783 1495.01 3.92797 1311.2 2.31299C1232.62 3.81041 1223 13.4508 1068.07 24.799C944.273 33.4308 872.798 34.557 676.364 49.1599C67.7264 97.2814 340.83 84.5225 1.01172 79.0835" stroke="#528491" stroke-opacity="0.25" stroke-width="2" stroke-linecap="round" stroke-linejoin="round"/>
<path d="M3242.7 79.0834C3105.74 78.0501 3044.52 69.1522 2891.54 111.631C2566.11 204.966 2938.13 97.2195 2432.28 233.775C2279.37 274.367 2174.09 289.724 2000.06 282.578C1760.63 268.581 1602.92 -0.205494 1311.2 2.02207C1212.28 5.67899 1214.71 22.559 960.022 33.5854C436.314 54.1718 415.855 76.5526 230.636 83.9717C120.653 87.443 94.5607 80.6303 1.01172 79.0896" stroke="#528491" stroke-opacity="0.25" stroke-width="2" stroke-linecap="round" stroke-linejoin="round"/>
<path d="M3242.7 79.0834C3113.1 78.2047 3050.66 68.0508 2905.03 105.523C2848 120.924 2823.38 129.897 2769.97 143.918C2410.98 232.822 2397.05 253.347 2243.18 277.646C2156.57 290.256 2001.88 299.266 1919.02 277.436C1798.3 239.431 1707.06 145.725 1554.32 64.3567C1333.09 -48.3518 1283.75 23.0664 1000.53 34.4146C840.801 40.1072 732.994 35.881 514.27 56.486C386.511 68.8799 335.254 79.0153 230.625 83.8665C121.192 87.8946 96.2431 80.686 1 79.0772" stroke="#528491" stroke-opacity="0.25" stroke-width="2" stroke-linecap="round" stroke-linejoin="round"/>
<path d="M3242.7 79.0835C3028.36 77.5428 3044.62 48.2132 2432.28 235.242C2278.63 281.513 2175.28 300.163 2000.05 295.999C1820.62 288.301 1731.81 151.987 1527.31 50.0509C1317.12 -49.0386 1281.54 31.6488 973.513 37.657C824.527 39.9341 716.028 34.3713 527.78 52.1609C404.509 64.3506 358.582 74.9192 257.638 82.2206C136.327 89.8253 99.6496 80.7913 1.00586 79.0835" stroke="#528491" stroke-opacity="0.25" stroke-width="2" stroke-linecap="round" stroke-linejoin="round"/>
<path d="M3242.7 79.0835C3110.37 78.0749 3047.44 64.7095 2891.54 103.896C2592.4 182.325 2652.84 161.986 2526.83 203.115C2419.51 238.528 2344.05 264.955 2243.18 284.422C2156.86 299.953 2002.77 313.454 1919.02 291.104C1797.16 251.775 1706.73 151.034 1554.32 65.9037C1328.13 -54.5766 1279.04 34.5569 1014.04 40.9302C870.56 43.2877 765.764 32.5583 595.317 43.5167C473.604 52.1423 418.891 63.4348 325.175 74.9562C162.667 93.841 112.857 80.9831 1.00586 79.0835" stroke="#528491" stroke-opacity="0.25" stroke-width="2" stroke-linecap="round" stroke-linejoin="round"/>
<path d="M3242.7 79.0837C3115.51 78.0566 3052.03 64.5179 2905.03 97.7767C2435.25 210.405 2440.06 244.87 2243.18 286.99C2156.17 304.433 2003.82 320.422 1919.02 297.75C1796.66 258.007 1706.5 154.66 1554.32 68.4718C1326.59 -54.335 1275.01 42.7373 1014.04 45.5279C874.876 45.7507 770.698 31.8903 608.827 39.891C491.974 46.5922 432.333 58.7634 338.685 71.8751C166.259 94.9551 112.751 80.9462 1.00586 79.0775" stroke="#528491" stroke-opacity="0.25" stroke-width="2" stroke-linecap="round" stroke-linejoin="round"/>
<path d="M3242.7 79.0834C3114.29 77.9881 3051.75 63.5956 2905.03 95.0476C2452.78 198.221 2472.7 232.699 2256.7 286.383C2168.89 307 2019.33 325.996 1932.52 308.009C1747.9 258.569 1595.02 17.8625 1351.72 9.54004C1230.31 10.165 1211.4 50.651 1014.04 50.1312C734.781 46.4433 736.469 8.42624 352.194 68.422C168.169 96.2108 117.864 80.983 1.01172 79.0834" stroke="#528491" stroke-opacity="0.25" stroke-width="2" stroke-linecap="round" stroke-linejoin="round"/>
<path d="M3242.7 79.0833C3114.55 77.9324 3052.01 62.556 2905.03 92.3187C2476.44 185.06 2475.56 229.679 2256.7 288.666C2169.63 310.929 2020.85 332.846 1932.52 314.667C1747.35 264.974 1595.5 18.3574 1351.72 12.5596C1229.03 14.5582 1207.78 57.8905 1014.04 54.7348C733.47 46.9507 733.729 3.03674 352.194 66.8626C168.497 96.5944 118.056 80.9581 1.01172 79.0895" stroke="#528491" stroke-opacity="0.25" stroke-width="2" stroke-linecap="round" stroke-linejoin="round"/>
<path d="M3242.7 79.0834C3111 77.8645 3047.68 60.3967 2891.54 92.3498C2437.17 190.684 2494.53 225.181 2243.18 294.687C2155.09 317.798 2006.68 341.249 1919.03 317.686C1735.88 257.078 1583.81 9.16885 1338.22 15.9444C1220.23 23.877 1193.3 66.9556 1000.54 58.7569C743.492 44.8037 702.134 1.22386 365.704 62.8841C171.236 97.5846 123.887 80.9954 1.01172 79.0834" stroke="#528491" stroke-opacity="0.25" stroke-width="2" stroke-linecap="round" stroke-linejoin="round"/>
<path d="M3242.7 79.0835C3116.51 77.8955 3052.71 60.8422 2905.03 87.0594C2502.07 164.189 2486.03 220.534 2256.7 292.094C2168.79 318.262 2023.24 345.246 1932.52 326.826C1747.51 277.201 1597.17 21.5814 1351.72 20.8574C1226.68 25.6652 1202.41 73.5888 1014.04 65.2417C880.502 57.4204 782.897 31.2094 635.846 29.2479C391.766 29.1427 372.976 94.596 41.5352 80.0054C27.5925 79.5599 26.7763 79.4671 1.01172 79.0835" stroke="#528491" stroke-opacity="0.25" stroke-width="2" stroke-linecap="round" stroke-linejoin="round"/>
<path d="M3242.7 79.0837C3032.31 77.0727 3067.4 49.5808 2769.97 112.807C2679.75 131.407 2643.82 137.631 2540.34 178.216C2437.56 219.464 2136.05 373.203 1932.51 332.141C1745.99 282.219 1598.17 24.6692 1351.72 26.5503C1225.97 32.7132 1199.65 82.3941 1014.04 71.3862C879.519 61.3189 782.594 31.5438 635.84 27.4537C395.099 24.2052 358.823 96.4711 55.033 80.5564C35.7915 79.7272 32.0508 79.5292 1.00586 79.0898" stroke="#528491" stroke-opacity="0.25" stroke-width="2" stroke-linecap="round" stroke-linejoin="round"/>
<path d="M3242.7 79.0834C3115.13 77.8645 3052.69 59.815 2905.03 82.0721C2660.44 122.28 2582.46 156.825 2526.83 179.732C2422.39 223.776 2113.36 385.714 1919.03 333.836C1733.07 272.213 1587.32 18.2276 1338.22 33.0285C1216.28 45.1254 1186.02 93.1666 1000.54 76.2866C870.504 62.4695 776.04 31.5868 635.846 25.6405C407.446 19.5394 346.852 95.4313 55.0389 80.488C35.618 79.6774 31.7598 79.4856 1.01172 79.0711" stroke="#528491" stroke-opacity="0.25" stroke-width="2" stroke-linecap="round" stroke-linejoin="round"/>
<path d="M3242.7 79.0834C3114.42 77.8583 3053.11 59.2334 2905.03 79.5784C2667.39 115.467 2589.6 148.645 2513.34 181.669C2397.8 232.631 2094.61 397.365 1905.5 334.672C1720.7 261.669 1575.83 12.8134 1324.7 40.3424C1208.49 57.4637 1172.11 103.438 987.023 80.5437C856.228 62.4076 761.683 28.8704 622.331 23.3077C396.805 18.2462 369.235 93.2161 41.5234 79.894C27.3767 79.4856 26.8883 79.4114 1 79.0772" stroke="#528491" stroke-opacity="0.25" stroke-width="2" stroke-linecap="round" stroke-linejoin="round"/>
<path d="M3242.7 79.0832C3112.05 77.8147 3047.83 57.451 2891.54 78.9408C2664.6 112.88 2601.83 138.596 2513.34 177.925C2397.48 230.452 2095.35 402.934 1905.5 339.993C1719.99 266.551 1577 15.9936 1324.7 46.3132C1211.06 64.2575 1173.06 109.452 1000.53 88.1358C795.164 59.1774 679.702 -14.357 419.725 41.3878C159.39 99.1498 191.294 81.3726 1.01172 79.0832" stroke="#528491" stroke-opacity="0.25" stroke-width="2" stroke-linecap="round" stroke-linejoin="round"/>
<path d="M3242.7 79.0835C3112.33 77.8584 3047.58 57.4329 2891.54 76.8683C2667.94 107.392 2604.37 133.028 2513.34 174.176C2390.79 230.762 2107.88 397.706 1919.03 347.66C1731.99 285.709 1590.08 28.0971 1338.22 51.307C1217.33 67.1846 1182.75 116.531 1014.05 96.7555C803.047 67.6797 686.219 -19.1768 419.738 39.173C157.998 98.6614 192.023 81.243 1.01172 79.0835" stroke="#528491" stroke-opacity="0.25" stroke-width="2" stroke-linecap="round" stroke-linejoin="round"/>
<path d="M3242.7 79.0832C3115.1 77.92 3052.95 58.8 2905.03 73.3782C2675.3 99.0261 2598.1 131.524 2513.34 170.426C2378.1 233.917 2094.42 408.552 1905.5 346.057C1719.06 272.405 1579.84 23.5612 1324.7 59.9509C1211.26 80.296 1168.9 127.285 1000.53 101.755C782.439 64.2823 678.948 -23.2176 406.222 40.0947C165.177 98.0485 174.155 80.9148 1.01172 79.0832" stroke="#528491" stroke-opacity="0.25" stroke-width="2" stroke-linecap="round" stroke-linejoin="round"/>
<path d="M3242.7 79.0833C3140.81 78.1861 2824.23 26.123 2526.83 160.389C2383.17 227.309 2125.14 394.475 1932.52 356.966C1746.56 307.873 1609.85 53.8747 1365.23 62.1662C1232.94 72.1655 1201.74 129.148 1041.06 114.39C905.605 98.3889 807.443 46.431 662.86 22.6827C427.491 -11.2691 349.344 90.5058 95.5623 81.9792C50.5624 80.0362 47.5883 79.5289 1.01172 79.0772" stroke="#528491" stroke-opacity="0.25" stroke-width="2" stroke-linecap="round" stroke-linejoin="round"/>
<path d="M3242.7 79.0834C3110.99 77.9634 3046.99 57.575 2891.54 70.9095C2676.77 91.7558 2610.6 116.921 2513.34 162.926C2371.03 231.975 2107.14 405.799 1919.03 356.279C1734.75 295.485 1598.26 48.1141 1351.72 69.7524C1224.54 85.9703 1188.22 140.824 1027.55 120.027C896.448 99.6574 801.409 47.6933 662.86 22.2124C428.215 -15.9717 350.321 89.6334 95.5623 81.8245C49.5731 79.9559 47.6873 79.498 1.01172 79.0834" stroke="#528491" stroke-opacity="0.25" stroke-width="2" stroke-linecap="round" stroke-linejoin="round"/>
<path d="M3242.7 79.0836C3125.01 78.1183 2811.58 25.2137 2540.35 146.436C2381.12 220.262 2128.09 400.496 1932.52 362.702C1746.6 313.844 1611.09 60.4339 1365.23 74.9688C1232.14 88.2723 1198.15 146.752 1041.06 129.16C909.507 110.628 815.982 55.7932 676.364 24.4897C436.42 -24.3187 357.438 85.2094 109.066 82.0413C57.0672 80.581 63.0586 79.591 1.00586 79.0774" stroke="#528491" stroke-opacity="0.25" stroke-width="2" stroke-linecap="round" stroke-linejoin="round"/>
<path d="M3242.7 79.0834C3109.87 78.0686 2799.12 22.7012 2526.83 149.511C2372.36 224.011 2110.76 409.629 1919.03 359.156C1734.34 298.307 1600.61 53.6149 1351.72 82.2143C1222.13 102.089 1179.56 161.404 1014.04 132.254C806.967 90.2212 681.619 -29.8012 433.235 25.1268C181.753 84.776 271.005 81.1067 1.01172 79.0834" stroke="#528491" stroke-opacity="0.25" stroke-width="2" stroke-linecap="round" stroke-linejoin="round"/>
<path d="M3242.7 79.0834C3104.04 78.0872 2797.69 24.4585 2540.35 140.075C2373.53 217.978 2144.65 390.014 1946.04 365.022C1754.76 327.803 1620.05 63.1996 1365.23 86.2673C1228.9 103.995 1189.29 166.868 1027.55 142.018C890.907 116.933 791.707 51.1274 649.356 19.5022C416.324 -26.4908 366.805 90.8647 55.0447 79.9311C35.3147 79.399 31.3143 79.2876 1.01758 79.0772" stroke="#528491" stroke-opacity="0.25" stroke-width="2" stroke-linecap="round" stroke-linejoin="round"/>
<path d="M3242.7 79.0836C3062.7 77.8646 3024.08 47.9967 2756.46 77.0726C2462.99 110.764 2326.99 308.708 2054.08 360.01C1961.63 375.17 1918.17 368.166 1837.97 320.31C1681.12 220.404 1564.69 70.6621 1365.23 91.8859C1206.85 114.898 1160.71 205.151 919.498 119.056C745.403 54.271 635.803 -19.7089 446.751 18.104C357.87 37.8117 302.681 61.2445 203.623 75.5628C123.126 85.5806 103.421 79.7147 1.01172 79.0836" stroke="#528491" stroke-opacity="0.25" stroke-width="2" stroke-linecap="round" stroke-linejoin="round"/>
<path d="M3242.7 79.0835C3071.63 78.0254 3015.72 49.7538 2769.97 73.2175C2455.69 104.738 2333.27 306.295 2054.07 359.639C1962.2 374.96 1918.56 367.968 1837.97 320.075C1679.21 219.414 1565.47 73.0257 1365.23 97.4979C1206.2 123.028 1157.17 213.888 919.492 125.145C746.288 57.6432 635.698 -21.5406 446.745 16.0805C358.211 35.7388 303.003 59.7903 203.617 74.8263C123.93 85.2588 103.928 79.6589 1.00586 79.0835" stroke="#528491" stroke-opacity="0.25" stroke-width="2" stroke-linecap="round" stroke-linejoin="round"/>
<path d="M3242.7 79.0834C3067.3 78.081 3006.64 49.067 2756.46 72.0727C2459.92 101.724 2318.52 314.512 2040.58 361.545C1959.98 373.066 1915.04 368.463 1824.47 311.313C1666.25 206.42 1553.65 69.9751 1351.72 105.48C1197.86 137.972 1144.03 222.662 905.988 125.726C730.953 51.8081 624.587 -25.4822 433.241 17.0581C343.854 38.7459 288.07 62.4757 190.113 75.9462C117.605 84.3491 101.17 79.566 1.01172 79.0834" stroke="#528491" stroke-opacity="0.25" stroke-width="2" stroke-linecap="round" stroke-linejoin="round"/>
<path d="M3242.7 79.0835C3065.48 78.1492 2987.76 48.9124 2742.94 71.9553C2544.2 93.2657 2429.8 196.532 2243.18 290.368C1994.83 411.455 1900.38 358.055 1810.96 299.142C1658.42 194.366 1547.27 71.7759 1351.73 109.743C1199.76 144.487 1140.45 230.403 905.994 131.902C739.708 59.2829 629.323 -23.2916 446.751 12.337C354.537 32.6636 295.014 60.2111 190.119 75.2781C118.353 84.0522 101.492 79.5228 1.01758 79.0773" stroke="#528491" stroke-opacity="0.25" stroke-width="2" stroke-linecap="round" stroke-linejoin="round"/>
</svg>
